<?xml version="1.0" encoding="utf-8"?>
<!-- Generator: Adobe Illustrator 18.1.1, SVG Export Plug-In . SVG Version: 6.00 Build 0)  -->
<svg version="1.1" id="Layer_1" xmlns="http://www.w3.org/2000/svg" xmlns:xlink="http://www.w3.org/1999/xlink" x="0px" y="0px"
	 width="960px" height="158px" viewBox="0 201 960 158" style="enable-background:new 0 201 960 158;" xml:space="preserve">
<style type="text/css">
	.st0{fill:#C896FD;}
	.st1{clip-path:url(#SVGID_2_);fill:#C896FD;}
</style>
<polygon class="st0" points="94.6,210.8 112.3,264.3 168.7,264.3 123.1,296.7 140.5,349.9 94.6,316.5 49,349.6 66.4,296.7 
	20.9,264.3 77.2,264.3 "/>
<polygon class="st0" points="287.3,210.8 304.7,264.3 361.4,264.3 315.5,296.7 333.2,349.9 287.3,316.5 241.7,349.6 259.1,296.7 
	213.6,264.3 269.9,264.3 "/>
<g>
	<defs>
		<rect id="SVGID_1_" x="397.6" y="201" width="73.9" height="169"/>
	</defs>
	<clipPath id="SVGID_2_">
		<use xlink:href="#SVGID_1_"  style="overflow:visible;"/>
	</clipPath>
	<polygon class="st1" points="471.3,210.8 488.7,264.3 545.4,264.3 499.5,296.7 517.2,349.9 471.3,316.5 425.7,349.6 443.1,296.7 
		397.6,264.3 453.9,264.3 	"/>
</g>
</svg>
