<?xml version="1.0" encoding="utf-8"?>
<!-- Generator: Adobe Illustrator 18.1.1, SVG Export Plug-In . SVG Version: 6.00 Build 0)  -->
<svg version="1.1" id="Layer_1" xmlns="http://www.w3.org/2000/svg" xmlns:xlink="http://www.w3.org/1999/xlink" x="0px" y="0px"
	 viewBox="0 0 792 612" style="enable-background:new 0 0 792 612;" xml:space="preserve">
<style type="text/css">
	.st0{fill:none;}
	.st1{fill:#F37121;}
	.st2{fill:#E2E2E2;}
	.st3{fill:#DBF1F8;}
	.st4{fill:#368F43;}
	.st5{fill:#206E37;}
	.st6{fill:#397F3D;}
	.st7{fill:#4A9644;}
	.st8{fill:#8FCA76;}
	.st9{fill:#6ABA5A;}
	.st10{fill:#23572B;}
	.st11{fill:#325F2E;}
	.st12{fill:#FBE8D2;}
	.st13{fill:#F89F63;}
	.st14{fill:#D1D2D1;}
	.st15{fill:#FFFFFF;}
	.st16{fill:#F6851F;}
	.st17{fill:#3D3D3D;}
	.st18{fill:#838484;}
	.st19{fill:#535554;}
	.st20{fill:#1D7D3E;}
	.st21{fill:#67BD45;}
	.st22{fill:#425CA9;}
	.st23{fill:#4953A4;}
	.st24{fill:#EE273C;}
	.st25{fill:#4F767A;}
	.st26{fill:#217756;}
	.st27{fill:#72C6A2;}
	.st28{fill:#134E72;}
	.st29{fill:#0D5738;}
	.st30{fill:#444545;}
	.st31{fill:#C05C3A;}
	.st32{fill:#AA4124;}
	.st33{fill:#4B87C6;}
	.st34{fill:#B0D6F2;}
	.st35{fill:#F6C26C;}
	.st36{fill:#E69D3D;}
	.st37{fill:#892E1C;}
	.st38{fill:#F8E7D2;}
	.st39{fill:#F79B79;}
	.st40{fill:#194751;}
	.st41{fill:#255943;}
	.st42{fill:#703522;}
	.st43{fill:#136E54;}
	.st44{fill:#0B563E;}
	.st45{fill:#07422E;}
	.st46{fill:#A64424;}
	.st47{fill:#922B1E;}
	.st48{fill:#7F2A1C;}
	.st49{fill:#DBE255;}
	.st50{fill:#D3B82A;}
	.st51{fill:#B19430;}
	.st52{fill:#4F7EC0;}
	.st53{fill:#263C93;}
	.st54{fill:#1E2655;}
	.st55{fill:#7E55A3;}
	.st56{fill:#2A1954;}
	.st57{fill:#1B1449;}
	.st58{fill:#E691BD;}
	.st59{fill:url(#New_Pattern);}
	.st60{fill:#6D182F;}
	.st61{fill:#E19BB0;}
	.st62{fill:#F8C15F;}
	.st63{fill:#666766;}
</style>
<pattern  width="18" height="18" patternUnits="userSpaceOnUse" id="New_Pattern" viewBox="0 -20.5 18 18" style="overflow:visible;">
	<g>
		<polygon class="st0" points="0,-20.5 18,-20.5 18,-2.5 0,-2.5 		"/>
		<path class="st1" d="M16.5-1.5C16.5-0.7,15.8,0,15,0s-1.5-0.7-1.5-1.5s0.7-1.5,1.5-1.5S16.5-2.4,16.5-1.5z"/>
		<path class="st1" d="M16.5-7.5C16.5-6.7,15.8-6,15-6s-1.5-0.7-1.5-1.5s0.7-1.5,1.5-1.5S16.5-8.4,16.5-7.5z"/>
		<path class="st1" d="M10.5-5.5C10.5-4.7,9.8-4,9-4S7.5-4.7,7.5-5.5S8.2-7.1,9-7.1S10.5-6.4,10.5-5.5z"/>
		<path class="st1" d="M4.5-3.5C4.5-2.7,3.8-2,3-2S1.5-2.7,1.5-3.5S2.2-5.1,3-5.1S4.5-4.4,4.5-3.5z"/>
		<path class="st1" d="M16.5-13.5c0,0.8-0.7,1.5-1.5,1.5s-1.5-0.7-1.5-1.5s0.7-1.5,1.5-1.5S16.5-14.4,16.5-13.5z"/>
		<path class="st1" d="M10.5-11.5c0,0.8-0.7,1.5-1.5,1.5s-1.5-0.7-1.5-1.5s0.7-1.5,1.5-1.5S10.5-12.4,10.5-11.5z"/>
		<path class="st1" d="M4.5-9.5C4.5-8.7,3.8-8,3-8S1.5-8.7,1.5-9.5s0.7-1.5,1.5-1.5S4.5-10.4,4.5-9.5z"/>
		<path class="st1" d="M16.5-19.5c0,0.8-0.7,1.5-1.5,1.5s-1.5-0.7-1.5-1.5s0.7-1.5,1.5-1.5S16.5-20.4,16.5-19.5z"/>
		<path class="st1" d="M10.5-17.5c0,0.8-0.7,1.5-1.5,1.5s-1.5-0.7-1.5-1.5s0.7-1.5,1.5-1.5S10.5-18.4,10.5-17.5z"/>
		<path class="st1" d="M4.5-15.5C4.5-14.7,3.8-14,3-14s-1.5-0.7-1.5-1.5c0-0.8,0.7-1.5,1.5-1.5S4.5-16.4,4.5-15.5z"/>
		<path class="st1" d="M4.5-21.5C4.5-20.7,3.8-20,3-20s-1.5-0.7-1.5-1.5s0.7-1.5,1.5-1.5S4.5-22.4,4.5-21.5z"/>
	</g>
</pattern>
<polygon class="st2" points="85.4,180.8 81.3,170.1 112.1,170.1 108.4,180.8 "/>
<rect class="st3" width="792" height="612"/>
<ellipse class="st4" cx="205.5" cy="124.6" rx="5" ry="8.1"/>
<ellipse class="st4" cx="173.5" cy="126.5" rx="2.8" ry="7.9"/>
<ellipse class="st4" cx="181.7" cy="126.7" rx="2.1" ry="5.3"/>
<ellipse class="st4" cx="173.5" cy="114.2" rx="2" ry="5.6"/>
<ellipse transform="matrix(0.9691 -0.2469 0.2469 0.9691 -21.0143 46.0038)" class="st4" cx="173" cy="106.8" rx="1.5" ry="2.8"/>
<ellipse class="st5" cx="177.8" cy="128.7" rx="2.3" ry="5.4"/>
<ellipse class="st5" cx="177.8" cy="120.3" rx="1.7" ry="3.8"/>
<path class="st5" d="M177,114.9c-0.3,1,0,1.9,0.6,2.1c0.7,0.1,1.5-0.6,1.8-1.6c0.3-1,0-1.9-0.6-2.1S177.3,113.9,177,114.9z"/>
<ellipse class="st5" cx="152.3" cy="127.3" rx="7" ry="6.6"/>
<ellipse class="st5" cx="200.1" cy="128.8" rx="5.4" ry="6.6"/>
<ellipse class="st5" cx="200.1" cy="118" rx="5.4" ry="6.6"/>
<ellipse class="st4" cx="148" cy="128.8" rx="5" ry="4.7"/>
<ellipse class="st6" cx="122.7" cy="123.6" rx="3.6" ry="13.1"/>
<ellipse class="st6" cx="129.7" cy="126.8" rx="2.3" ry="8.2"/>
<ellipse transform="matrix(0.5299 0.8481 -0.8481 0.5299 168.5783 -53.3992)" class="st6" cx="132.5" cy="125.4" rx="0.5" ry="2.2"/>
<path class="st7" d="M142.4,61.3c-4.6,2-6.8,7.3-4.8,11.9c1,2.4,3,4.2,5.3,5c-0.3-0.4-0.5-0.9-0.7-1.4c-2-4.6,0.2-10,4.8-11.9
	c2.2-0.9,4.6-0.9,6.7-0.2C151.2,61.1,146.5,59.6,142.4,61.3z"/>
<path class="st8" d="M138.8,55.4c-6.3,2.6-9.2,9.9-6.5,16.1c1.4,3.3,4,5.6,7.1,6.8c-0.4-0.6-0.7-1.2-1-1.9
	c-2.6-6.3,0.3-13.5,6.5-16.1c3-1.3,6.2-1.2,9-0.2C150.8,55.1,144.4,53,138.8,55.4z"/>
<path class="st9" d="M132.3,67c-0.9-4.2-5-6.9-9.3-6c-2.2,0.5-4,1.8-5.1,3.6c0.4-0.2,0.8-0.3,1.3-0.4c4.2-0.9,8.4,1.8,9.3,6
	c0.4,2,0,4-1,5.6C131,74.5,133.1,70.8,132.3,67z"/>
<path class="st9" d="M132.2,57.3c-3.6,5.4-2,12.7,3.4,16.3c2.8,1.9,6.2,2.3,9.2,1.6c-0.6-0.3-1.2-0.6-1.8-0.9
	c-5.4-3.6-6.9-10.8-3.4-16.3c1.7-2.6,4.2-4.3,7-5C141.5,50.7,135.4,52.4,132.2,57.3z"/>
<path class="st8" d="M139.7,64.7c0.4-5.8-4.1-10.8-9.9-11.1c-3-0.2-5.8,0.9-7.9,2.9c0.6-0.1,1.2-0.1,1.8-0.1
	c5.8,0.4,10.2,5.3,9.9,11.1c-0.2,2.8-1.4,5.2-3.3,7C135.3,74,139.4,69.9,139.7,64.7z"/>
<path class="st10" d="M136.1,60.9c-2.2,4.5-0.4,10,4.1,12.2c2.4,1.2,5,1.2,7.2,0.4c-0.5-0.1-1-0.3-1.5-0.6
	c-4.5-2.2-6.3-7.7-4.1-12.2c1.1-2.1,2.9-3.7,4.9-4.5C142.7,55,138.1,56.9,136.1,60.9z"/>
<path class="st6" d="M127.6,59.9c-1,6.4,3.3,12.4,9.8,13.4c3.4,0.5,6.6-0.4,9.1-2.4c-0.7,0-1.3,0-2-0.1c-6.4-1-10.8-7-9.8-13.4
	c0.5-3.1,2.1-5.6,4.4-7.4C133.5,50.1,128.5,54.2,127.6,59.9z"/>
<path class="st7" d="M144.2,68.5c2.5-5,0.4-11-4.5-13.4c-2.6-1.3-5.5-1.3-8-0.4c0.5,0.2,1.1,0.4,1.6,0.6c5,2.5,7,8.5,4.5,13.4
	c-1.2,2.4-3.2,4-5.4,4.9C137,75,142,72.9,144.2,68.5z"/>
<path class="st11" d="M125.2,71.9c0.4,5,4.8,8.7,9.8,8.3c2.6-0.2,4.9-1.5,6.4-3.4c-0.5,0.1-1,0.2-1.5,0.3c-5,0.4-9.4-3.3-9.8-8.3
	c-0.2-2.4,0.6-4.6,1.9-6.4C127.8,63.4,124.9,67.4,125.2,71.9z"/>
<rect x="567.8" y="91.4" class="st12" width="178.7" height="105"/>
<path class="st13" d="M563.8,87.9v111.7h187.6V87.9H563.8z M744.6,193.4H570.2V94.5h174.3V193.4z"/>
<rect x="577" y="102.1" class="st14" width="49.8" height="66"/>
<rect x="577.5" y="101.6" class="st15" width="49.8" height="66"/>
<circle class="st16" cx="600" cy="103.2" r="1"/>
<rect x="582" y="107.9" class="st17" width="20" height="1.1"/>
<rect x="582" y="120.2" class="st17" width="38.7" height="1.1"/>
<rect x="582" y="132.3" class="st17" width="38.7" height="1.1"/>
<rect x="582" y="123" class="st17" width="37.3" height="1.1"/>
<rect x="582" y="126" class="st17" width="38.7" height="1.1"/>
<rect x="582" y="129.9" class="st17" width="33.8" height="1.1"/>
<rect x="582" y="134.3" class="st17" width="33.8" height="1.1"/>
<rect x="582" y="117.9" class="st17" width="12.5" height="1.1"/>
<rect x="582" y="138.4" class="st17" width="12.5" height="1.1"/>
<rect x="582" y="141" class="st17" width="10" height="2.3"/>
<rect x="582" y="110.7" class="st17" width="18.1" height="1.1"/>
<rect x="582" y="113.4" class="st17" width="15.4" height="1.1"/>
<g>
	
		<rect x="697" y="169.1" transform="matrix(0.9778 -0.2095 0.2095 0.9778 -21.9222 151.8848)" class="st18" width="18.2" height="20.6"/>
	
		<rect x="697.5" y="168" transform="matrix(0.9778 -0.2095 0.2095 0.9778 -21.6783 151.9527)" class="st15" width="18.2" height="20.6"/>
	
		<rect x="699.4" y="170.1" transform="matrix(0.9778 -0.2095 0.2095 0.9778 -21.4122 151.8655)" class="st19" width="13.8" height="13.8"/>
	
		<rect x="699.4" y="170.8" transform="matrix(0.9778 -0.2095 0.2095 0.9778 -21.6389 151.1732)" class="st18" width="6.9" height="13.8"/>
</g>
<g>
	
		<rect x="674.3" y="147.2" transform="matrix(0.9824 0.187 -0.187 0.9824 41.5105 -125.0101)" class="st18" width="18.2" height="20.6"/>
	
		<rect x="675.1" y="146.4" transform="matrix(0.9824 0.187 -0.187 0.9824 41.3649 -125.1826)" class="st15" width="18.2" height="20.6"/>
	
		<rect x="677.6" y="148.4" transform="matrix(0.9824 0.187 -0.187 0.9824 41.1251 -125.2522)" class="st19" width="13.8" height="13.8"/>
	
		<rect x="677.6" y="147.8" transform="matrix(0.9824 0.187 -0.187 0.9824 40.9442 -124.6283)" class="st18" width="6.9" height="13.8"/>
</g>
<g>
	
		<rect x="707.7" y="151.1" transform="matrix(0.9997 2.441706e-02 -2.441706e-02 0.9997 4.154 -17.4541)" class="st18" width="18.2" height="20.6"/>
	
		<rect x="708.4" y="150.1" transform="matrix(0.9997 2.441706e-02 -2.441706e-02 0.9997 4.1302 -17.4713)" class="st15" width="18.2" height="20.6"/>
	
		<rect x="710.6" y="152.1" transform="matrix(0.9997 2.441706e-02 -2.441706e-02 0.9997 4.0977 -17.4725)" class="st19" width="13.8" height="13.8"/>
	
		<rect x="710.6" y="152.1" transform="matrix(0.9997 2.441706e-02 -2.441706e-02 0.9997 4.0946 -17.3881)" class="st18" width="6.9" height="13.8"/>
</g>
<g>
	
		<rect x="722.6" y="127.3" transform="matrix(0.9997 2.441706e-02 -2.441706e-02 0.9997 3.5772 -17.8253)" class="st18" width="18.2" height="20.6"/>
	
		<rect x="723.3" y="126.3" transform="matrix(0.9997 2.441706e-02 -2.441706e-02 0.9997 3.5534 -17.8425)" class="st15" width="18.2" height="20.6"/>
	
		<rect x="725.5" y="128.3" transform="matrix(0.9997 2.441706e-02 -2.441706e-02 0.9997 3.521 -17.8437)" class="st19" width="13.8" height="13.8"/>
	
		<rect x="725.5" y="128.3" transform="matrix(0.9997 2.441706e-02 -2.441706e-02 0.9997 3.5179 -17.7593)" class="st18" width="6.9" height="13.8"/>
</g>
<g>
	<rect x="721.7" y="168.6" class="st18" width="18.2" height="20.6"/>
	<rect x="722.4" y="167.6" class="st15" width="18.2" height="20.6"/>
	<rect x="724.5" y="169.6" class="st19" width="13.8" height="13.8"/>
	<rect x="724.5" y="169.6" class="st18" width="6.9" height="13.8"/>
</g>
<g>
	
		<rect x="686.1" y="137.9" transform="matrix(0.9949 -0.1007 0.1007 0.9949 -11.393 70.7505)" class="st18" width="18.2" height="20.6"/>
	
		<rect x="686.7" y="136.9" transform="matrix(0.9949 -0.1007 0.1007 0.9949 -11.2832 70.8017)" class="st15" width="18.2" height="20.6"/>
	
		<rect x="688.7" y="138.9" transform="matrix(0.9949 -0.1007 0.1007 0.9949 -11.1507 70.7815)" class="st19" width="13.8" height="13.8"/>
	
		<rect x="688.8" y="139.3" transform="matrix(0.9949 -0.1007 0.1007 0.9949 -11.2032 70.4368)" class="st18" width="6.9" height="13.8"/>
</g>
<circle class="st16" cx="684.5" cy="148.1" r="1"/>
<circle class="st20" cx="695.1" cy="138.4" r="1"/>
<circle class="st21" cx="729" cy="128.2" r="1"/>
<circle class="st22" cx="720.7" cy="152" r="1"/>
<circle class="st23" cx="704.2" cy="170.3" r="1"/>
<circle class="st24" cx="732.4" cy="169.6" r="1"/>
<rect x="94.4" y="143.9" class="st13" width="149.7" height="5.6"/>
<rect x="21.6" y="91.9" class="st13" width="149.7" height="5.6"/>
<rect x="30.5" y="27.4" class="st25" width="17.3" height="64.5"/>
<rect x="47.8" y="39.6" class="st26" width="11.2" height="52.3"/>
<rect x="36.7" y="144.5" class="st26" width="11.2" height="52.3"/>
<rect x="28.2" y="157" class="st27" width="8.5" height="39.8"/>
<rect x="28.2" y="157" class="st28" width="8.5" height="4.8"/>
<rect x="28.2" y="192.1" class="st28" width="8.5" height="4.8"/>
<rect x="36.7" y="144.5" class="st29" width="11.2" height="4.5"/>
<rect x="36.7" y="189.9" class="st29" width="11.2" height="4.5"/>
<rect x="36.7" y="171.6" class="st29" width="11.2" height="4.5"/>
<rect x="36.7" y="180.8" class="st29" width="11.2" height="4.5"/>
<rect x="36.7" y="162.7" class="st29" width="11.2" height="4.5"/>
<rect x="36.7" y="153.6" class="st29" width="11.2" height="4.5"/>
<rect x="59" y="30.1" class="st30" width="3" height="61.8"/>
<rect x="47.8" y="140.9" class="st30" width="1.5" height="56.1"/>
<rect x="52" y="140.9" class="st30" width="3.7" height="56.1"/>
<rect x="49.3" y="139.4" class="st25" width="2.6" height="57.5"/>
<rect x="62" y="44.7" class="st31" width="7.7" height="47.2"/>
<rect x="55.7" y="151.4" class="st31" width="7.7" height="47.2"/>
<rect x="69.7" y="44.7" class="st32" width="7.7" height="47.2"/>
<rect x="79.4" y="39.2" transform="matrix(0.9953 -9.714220e-02 9.714220e-02 0.9953 -5.9453 8.5865)" class="st33" width="11.7" height="52.3"/>
<rect x="79.1" y="40.9" transform="matrix(0.9953 -9.714220e-02 9.714220e-02 0.9953 -3.7813 8.2715)" class="st34" width="7.9" height="4.1"/>
<polygon class="st34" points="86.1,76.5 81.3,67 83.9,56.6 89.2,66.3 "/>
<rect x="79.3" y="45.9" transform="matrix(0.9953 -9.714220e-02 9.714220e-02 0.9953 -4.1173 8.3103)" class="st34" width="7.9" height="1.1"/>
<rect x="79.5" y="47.5" transform="matrix(0.9953 -9.714220e-02 9.714220e-02 0.9953 -4.2692 8.3329)" class="st34" width="7.9" height="1.1"/>
<rect x="91.1" y="39.4" transform="matrix(0.9953 -9.714220e-02 9.714220e-02 0.9953 -5.9157 9.5494)" class="st35" width="8" height="52.3"/>
<rect x="93.4" y="41" transform="matrix(0.9953 -9.714220e-02 9.714220e-02 0.9953 -5.865 9.521)" class="st36" width="2.8" height="48"/>
<rect x="69.7" y="44.7" class="st37" width="7.7" height="3.1"/>
<rect x="72.5" y="49.4" class="st38" width="2.1" height="39"/>
<rect x="63.8" y="48.8" class="st39" width="3.9" height="39"/>
<rect x="33.4" y="31" class="st40" width="11.4" height="4.4"/>
<rect x="33.4" y="36.2" class="st40" width="11.4" height="1.6"/>
<rect x="33.4" y="38.8" class="st40" width="11.4" height="1.6"/>
<rect x="33.4" y="41.4" class="st40" width="11.4" height="1.6"/>
<rect x="33.4" y="43.9" class="st40" width="11.4" height="1.6"/>
<rect x="33.4" y="46.4" class="st40" width="11.4" height="1.6"/>
<rect x="33.4" y="49.2" class="st40" width="11.4" height="1.6"/>
<rect x="33.4" y="51.7" class="st40" width="11.4" height="1.6"/>
<rect x="33.4" y="54.3" class="st40" width="11.4" height="1.6"/>
<rect x="33.4" y="57" class="st40" width="11.4" height="1.6"/>
<rect x="33.4" y="59.5" class="st40" width="11.4" height="1.6"/>
<rect x="33.4" y="62.1" class="st40" width="11.4" height="1.6"/>
<rect x="33.4" y="65" class="st40" width="11.4" height="1.6"/>
<rect x="33.4" y="67.5" class="st40" width="11.4" height="1.6"/>
<rect x="33.4" y="70" class="st40" width="11.4" height="1.6"/>
<rect x="33.4" y="72.9" class="st40" width="11.4" height="16.9"/>
<rect x="47.8" y="41" class="st41" width="11.2" height="7"/>
<rect x="55.7" y="157.9" class="st42" width="7.7" height="3.1"/>
<path class="st9" d="M148.2,70.4c1.9-3.9,0.3-8.6-3.5-10.5c-2-1-4.3-1-6.2-0.3c0.4,0.1,0.8,0.3,1.3,0.5c3.9,1.9,5.4,6.6,3.5,10.5
	c-0.9,1.8-2.5,3.2-4.2,3.8C142.6,75.5,146.5,73.9,148.2,70.4z"/>
<g>
	<polygon class="st43" points="137.4,69.1 137.4,91.9 131,91.9 121.9,69.1 	"/>
	<polygon class="st44" points="152.9,69.1 143.9,91.9 137.4,91.9 137.4,69.1 	"/>
	<rect x="121.9" y="69.1" class="st45" width="31" height="4.9"/>
</g>
<polygon class="st46" points="201.8,129.4 201.8,144 197.7,144 191.8,129.4 "/>
<polygon class="st47" points="211.8,129.4 205.9,144 201.8,144 201.8,129.4 "/>
<rect x="191.8" y="129.4" class="st48" width="19.9" height="3.2"/>
<polygon class="st49" points="176.7,129.4 176.7,144 172.5,144 166.7,129.4 "/>
<polygon class="st50" points="186.6,129.4 180.8,144 176.7,144 176.7,129.4 "/>
<rect x="166.7" y="129.4" class="st51" width="19.9" height="3.2"/>
<polygon class="st52" points="151.4,129.4 151.4,144 147.3,144 141.4,129.4 "/>
<polygon class="st53" points="161.4,129.4 155.6,144 151.4,144 151.4,129.4 "/>
<rect x="141.4" y="129.4" class="st54" width="19.9" height="3.2"/>
<polygon class="st55" points="126.3,129.4 126.3,144 122.2,144 116.3,129.4 "/>
<polygon class="st56" points="136.3,129.4 130.4,144 126.3,144 126.3,129.4 "/>
<rect x="116.3" y="129.4" class="st57" width="19.9" height="3.2"/>
<circle class="st58" cx="171.1" cy="110.9" r="1"/>
<circle class="st58" cx="175.7" cy="115.2" r="1"/>
<circle class="st58" cx="171.6" cy="121.3" r="1"/>
<circle class="st58" cx="179.5" cy="125.9" r="1"/>
<circle class="st58" cx="176.3" cy="119.3" r="1"/>
<circle class="st58" cx="174.1" cy="105.6" r="1"/>
<circle class="st15" cx="32.4" cy="166.1" r="2.5"/>
<rect x="21.6" y="196.9" class="st13" width="149.7" height="5.6"/>
<rect x="75.1" y="180.8" class="st35" width="45.1" height="16.1"/>
<rect x="75.1" y="180.8" class="st59" width="45.1" height="16.1"/>
<polygon class="st15" points="86.4,180.8 82.3,170.1 113.1,170.1 109.4,180.8 "/>
<path class="st60" d="M129.7,161v35.9h37V161H129.7z M164.6,194.9h-32.9V163h32.9V194.9z"/>
<rect x="131.8" y="163" class="st61" width="32.9" height="31.9"/>
<path class="st60" d="M137.8,168.8V189h20.8v-20.2H137.8z M157.4,187.9h-18.5v-17.9h18.5V187.9z"/>
<rect x="138.9" y="169.9" class="st15" width="18.5" height="17.9"/>
<circle class="st62" cx="148" cy="178.9" r="4.1"/>
<path class="st63" d="M395,336.1c-54.2,0-98.1,19.3-98.2,43.1h196.4C493.1,355.4,449.2,336.1,395,336.1z"/>
<g>
</g>
<g>
</g>
<g>
</g>
<g>
</g>
<g>
</g>
<g>
</g>
</svg>
