<?xml version="1.0" encoding="utf-8"?>
<!-- Generator: Adobe Illustrator 18.1.1, SVG Export Plug-In . SVG Version: 6.00 Build 0)  -->
<svg version="1.1" id="Layer_1" xmlns="http://www.w3.org/2000/svg" xmlns:xlink="http://www.w3.org/1999/xlink" x="0px" y="0px"
	 viewBox="0 306 792 590" enable-background="new 0 306 792 590" xml:space="preserve">
<pattern  y="1224" width="18" height="18" patternUnits="userSpaceOnUse" id="New_Pattern" viewBox="0 -20.5 18 18" overflow="visible">
	<g>
		<polygon fill="none" points="0,-2.5 18,-2.5 18,-20.5 0,-20.5 		"/>
		<g>
			<polygon fill="none" points="0,-2.5 18,-2.5 18,-20.5 0,-20.5 			"/>
			<path fill="#F37121" d="M16.5-21.5c0-0.8-0.7-1.5-1.5-1.5s-1.5,0.7-1.5,1.5S14.2-20,15-20S16.5-20.6,16.5-21.5z"/>
			<path fill="#F37121" d="M16.5-15.5c0-0.8-0.7-1.5-1.5-1.5s-1.5,0.7-1.5,1.5c0,0.8,0.7,1.5,1.5,1.5S16.5-14.6,16.5-15.5z"/>
			<path fill="#F37121" d="M10.5-17.5c0-0.8-0.7-1.5-1.5-1.5s-1.5,0.7-1.5,1.5s0.7,1.6,1.5,1.6S10.5-16.6,10.5-17.5z"/>
			<path fill="#F37121" d="M4.5-19.5C4.5-20.3,3.8-21,3-21s-1.5,0.7-1.5,1.5s0.7,1.6,1.5,1.6S4.5-18.6,4.5-19.5z"/>
			<path fill="#F37121" d="M16.5-9.5c0-0.8-0.7-1.5-1.5-1.5s-1.5,0.7-1.5,1.5S14.2-8,15-8S16.5-8.6,16.5-9.5z"/>
			<path fill="#F37121" d="M10.5-11.5c0-0.8-0.7-1.5-1.5-1.5s-1.5,0.7-1.5,1.5S8.2-10,9-10S10.5-10.6,10.5-11.5z"/>
			<path fill="#F37121" d="M4.5-13.5C4.5-14.3,3.8-15,3-15s-1.5,0.7-1.5,1.5S2.2-12,3-12S4.5-12.6,4.5-13.5z"/>
			<path fill="#F37121" d="M16.5-3.5C16.5-4.3,15.8-5,15-5s-1.5,0.7-1.5,1.5S14.2-2,15-2S16.5-2.6,16.5-3.5z"/>
			<path fill="#F37121" d="M10.5-5.5C10.5-6.3,9.8-7,9-7S7.5-6.3,7.5-5.5S8.2-4,9-4S10.5-4.6,10.5-5.5z"/>
			<path fill="#F37121" d="M4.5-7.5C4.5-8.3,3.8-9,3-9S1.5-8.3,1.5-7.5C1.5-6.7,2.2-6,3-6S4.5-6.6,4.5-7.5z"/>
			<path fill="#F37121" d="M4.5-1.5C4.5-2.3,3.8-3,3-3S1.5-2.3,1.5-1.5S2.2,0,3,0S4.5-0.6,4.5-1.5z"/>
		</g>
	</g>
</pattern>
<polygon fill="#E2E2E2" points="85.4,486.8 81.3,476.1 112.1,476.1 108.4,486.8 "/>
<rect y="306" fill="#DBF1F8" width="792" height="612"/>
<ellipse fill="#368F43" cx="205.5" cy="430.6" rx="5" ry="8.1"/>
<ellipse fill="#368F43" cx="173.5" cy="432.5" rx="2.8" ry="7.9"/>
<ellipse fill="#368F43" cx="181.7" cy="432.7" rx="2.1" ry="5.3"/>
<ellipse fill="#368F43" cx="173.5" cy="420.2" rx="2" ry="5.6"/>
<ellipse transform="matrix(-0.2469 -0.969 0.969 -0.2469 -184.2895 682.3553)" fill="#368F43" cx="173" cy="412.8" rx="2.8" ry="1.5"/>
<ellipse fill="#206E37" cx="177.8" cy="434.7" rx="2.3" ry="5.4"/>
<ellipse fill="#206E37" cx="177.8" cy="426.3" rx="1.7" ry="3.8"/>
<path fill="#206E37" d="M177,420.9c-0.3,1,0,1.9,0.6,2.1c0.7,0.1,1.5-0.6,1.8-1.6s0-1.9-0.6-2.1C178.2,419.1,177.3,419.9,177,420.9z
	"/>
<ellipse fill="#206E37" cx="152.3" cy="433.3" rx="7" ry="6.6"/>
<ellipse fill="#206E37" cx="200.1" cy="434.8" rx="5.4" ry="6.6"/>
<ellipse fill="#206E37" cx="200.1" cy="424" rx="5.4" ry="6.6"/>
<ellipse fill="#368F43" cx="148" cy="434.8" rx="5" ry="4.7"/>
<ellipse fill="#397F3D" cx="122.7" cy="429.6" rx="3.6" ry="13.1"/>
<ellipse fill="#397F3D" cx="129.7" cy="432.8" rx="2.3" ry="8.2"/>
<ellipse transform="matrix(0.8481 -0.5299 0.5299 0.8481 -208.4824 135.7223)" fill="#397F3D" cx="132.4" cy="431.4" rx="2.2" ry="0.5"/>
<path fill="#4A9644" d="M142.4,367.3c-4.6,2-6.8,7.3-4.8,11.9c1,2.4,3,4.2,5.3,5c-0.3-0.4-0.5-0.9-0.7-1.4c-2-4.6,0.2-10,4.8-11.9
	c2.2-0.9,4.6-0.9,6.7-0.2C151.2,367.1,146.5,365.6,142.4,367.3z"/>
<path fill="#8FCA76" d="M138.8,361.4c-6.3,2.6-9.2,9.9-6.5,16.1c1.4,3.3,4,5.6,7.1,6.8c-0.4-0.6-0.7-1.2-1-1.9
	c-2.6-6.3,0.3-13.5,6.5-16.1c3-1.3,6.2-1.2,9-0.2C150.8,361.1,144.4,359,138.8,361.4z"/>
<path fill="#6ABA5A" d="M132.3,373c-0.9-4.2-5-6.9-9.3-6c-2.2,0.5-4,1.8-5.1,3.6c0.4-0.2,0.8-0.3,1.3-0.4c4.2-0.9,8.4,1.8,9.3,6
	c0.4,2,0,4-1,5.6C131,380.5,133.1,376.8,132.3,373z"/>
<path fill="#6ABA5A" d="M132.2,363.3c-3.6,5.4-2,12.7,3.4,16.3c2.8,1.9,6.2,2.3,9.2,1.6c-0.6-0.3-1.2-0.6-1.8-0.9
	c-5.4-3.6-6.9-10.8-3.4-16.3c1.7-2.6,4.2-4.3,7-5C141.5,356.7,135.4,358.4,132.2,363.3z"/>
<path fill="#8FCA76" d="M139.7,370.7c0.4-5.8-4.1-10.8-9.9-11.1c-3-0.2-5.8,0.9-7.9,2.9c0.6-0.1,1.2-0.1,1.8-0.1
	c5.8,0.4,10.2,5.3,9.9,11.1c-0.2,2.8-1.4,5.2-3.3,7C135.3,380,139.4,375.9,139.7,370.7z"/>
<path fill="#23572B" d="M136.1,366.9c-2.2,4.5-0.4,10,4.1,12.2c2.4,1.2,5,1.2,7.2,0.4c-0.5-0.1-1-0.3-1.5-0.6
	c-4.5-2.2-6.3-7.7-4.1-12.2c1.1-2.1,2.9-3.7,4.9-4.5C142.7,361,138.1,362.9,136.1,366.9z"/>
<path fill="#397F3D" d="M127.6,365.9c-1,6.4,3.3,12.4,9.8,13.4c3.4,0.5,6.6-0.4,9.1-2.4c-0.7,0-1.3,0-2-0.1c-6.4-1-10.8-7-9.8-13.4
	c0.5-3.1,2.1-5.6,4.4-7.4C133.5,356.1,128.5,360.2,127.6,365.9z"/>
<path fill="#4A9644" d="M144.2,374.5c2.5-5,0.4-11-4.5-13.4c-2.6-1.3-5.5-1.3-8-0.4c0.5,0.2,1.1,0.4,1.6,0.6c5,2.5,7,8.5,4.5,13.4
	c-1.2,2.4-3.2,4-5.4,4.9C137,381,142,378.9,144.2,374.5z"/>
<path fill="#325F2E" d="M125.2,377.9c0.4,5,4.8,8.7,9.8,8.3c2.6-0.2,4.9-1.5,6.4-3.4c-0.5,0.1-1,0.2-1.5,0.3c-5,0.4-9.4-3.3-9.8-8.3
	c-0.2-2.4,0.6-4.6,1.9-6.4C127.8,369.4,124.9,373.4,125.2,377.9z"/>
<rect x="567.8" y="397.4" fill="#FBE8D2" width="178.7" height="105"/>
<path fill="#F68C1F" d="M563.8,393.9v111.7h187.6V393.9H563.8z M744.6,499.4H570.2v-98.9h174.3L744.6,499.4L744.6,499.4z"/>
<rect x="577" y="408.1" fill="#D1D2D1" width="49.8" height="66"/>
<rect x="577.5" y="407.6" fill="#FFFFFF" width="49.8" height="66"/>
<circle fill="#F6851F" cx="600" cy="409.2" r="1"/>
<rect x="582" y="413.9" fill="#3D3D3D" width="20" height="1.1"/>
<rect x="582" y="426.2" fill="#3D3D3D" width="38.7" height="1.1"/>
<rect x="582" y="438.3" fill="#3D3D3D" width="38.7" height="1.1"/>
<rect x="582" y="429" fill="#3D3D3D" width="37.3" height="1.1"/>
<rect x="582" y="432" fill="#3D3D3D" width="38.7" height="1.1"/>
<rect x="582" y="435.9" fill="#3D3D3D" width="33.8" height="1.1"/>
<rect x="582" y="440.3" fill="#3D3D3D" width="33.8" height="1.1"/>
<rect x="582" y="423.9" fill="#3D3D3D" width="12.5" height="1.1"/>
<rect x="582" y="444.4" fill="#3D3D3D" width="12.5" height="1.1"/>
<rect x="582" y="447" fill="#3D3D3D" width="10" height="2.3"/>
<rect x="582" y="416.7" fill="#3D3D3D" width="18.1" height="1.1"/>
<rect x="582" y="419.4" fill="#3D3D3D" width="15.4" height="1.1"/>
<g>
	
		<rect x="697" y="475.1" transform="matrix(-0.9778 0.2095 -0.2095 -0.9778 1498.1908 812.0505)" fill="#838484" width="18.2" height="20.6"/>
	
		<rect x="697.5" y="474" transform="matrix(-0.9778 0.2095 -0.2095 -0.9778 1498.9514 809.7451)" fill="#FFFFFF" width="18.2" height="20.6"/>
	
		<rect x="699.4" y="476.1" transform="matrix(-0.9778 0.2095 -0.2095 -0.9778 1498.0875 807.2457)" fill="#535554" width="13.8" height="13.8"/>
	
		<rect x="699.4" y="476.8" transform="matrix(-0.9778 0.2095 -0.2095 -0.9778 1491.407 809.3833)" fill="#838484" width="6.9" height="13.8"/>
</g>
<g>
	
		<rect x="674.3" y="453.2" transform="matrix(-0.9824 -0.187 0.187 -0.9824 1268.1318 1046.6481)" fill="#838484" width="18.2" height="20.6"/>
	
		<rect x="675.1" y="452.4" transform="matrix(-0.9824 -0.187 0.187 -0.9824 1269.8489 1045.1925)" fill="#FFFFFF" width="18.2" height="20.6"/>
	
		<rect x="677.6" y="454.4" transform="matrix(-0.9824 -0.187 0.187 -0.9824 1270.7363 1042.4985)" fill="#535554" width="13.8" height="13.8"/>
	
		<rect x="677.6" y="453.8" transform="matrix(-0.9824 -0.187 0.187 -0.9824 1263.9957 1040.6412)" fill="#838484" width="6.9" height="13.8"/>
</g>
<g>
	
		<rect x="707.7" y="457.1" transform="matrix(-0.9997 -2.441703e-02 2.441703e-02 -0.9997 1421.97 952.162)" fill="#838484" width="18.2" height="20.6"/>
	
		<rect x="708.4" y="456.1" transform="matrix(-0.9997 -2.441703e-02 2.441703e-02 -0.9997 1423.3949 950.1798)" fill="#FFFFFF" width="18.2" height="20.6"/>
	
		<rect x="710.6" y="458.1" transform="matrix(-0.9997 -2.441703e-02 2.441703e-02 -0.9997 1423.4324 947.3787)" fill="#535554" width="13.8" height="13.8"/>
	
		<rect x="710.6" y="458.1" transform="matrix(-0.9997 -2.441703e-02 2.441703e-02 -0.9997 1416.5294 947.2947)" fill="#838484" width="6.9" height="13.8"/>
</g>
<g>
	
		<rect x="722.6" y="433.3" transform="matrix(-0.9997 -2.441703e-02 2.441703e-02 -0.9997 1452.3462 904.9324)" fill="#838484" width="18.2" height="20.6"/>
	
		<rect x="723.3" y="432.3" transform="matrix(-0.9997 -2.441703e-02 2.441703e-02 -0.9997 1453.7714 902.9503)" fill="#FFFFFF" width="18.2" height="20.6"/>
	
		<rect x="725.5" y="434.3" transform="matrix(-0.9997 -2.441703e-02 2.441703e-02 -0.9997 1453.8091 900.1491)" fill="#535554" width="13.8" height="13.8"/>
	
		<rect x="725.5" y="434.3" transform="matrix(-0.9997 -2.441703e-02 2.441703e-02 -0.9997 1446.906 900.0652)" fill="#838484" width="6.9" height="13.8"/>
</g>
<g>
	<rect x="721.7" y="474.6" fill="#838484" width="18.2" height="20.6"/>
	<rect x="722.4" y="473.6" fill="#FFFFFF" width="18.2" height="20.6"/>
	<rect x="724.5" y="475.6" fill="#535554" width="13.8" height="13.8"/>
	<rect x="724.5" y="475.6" fill="#838484" width="6.9" height="13.8"/>
</g>
<g>
	
		<rect x="686.1" y="443.9" transform="matrix(-0.9949 0.1007 -0.1007 -0.9949 1432.574 836.061)" fill="#838484" width="18.2" height="20.6"/>
	
		<rect x="686.7" y="442.9" transform="matrix(-0.9949 0.1007 -0.1007 -0.9949 1433.682 833.9968)" fill="#FFFFFF" width="18.2" height="20.6"/>
	
		<rect x="688.7" y="444.9" transform="matrix(-0.9949 0.1007 -0.1007 -0.9949 1433.1278 831.239)" fill="#535554" width="13.8" height="13.8"/>
	
		<rect x="688.8" y="445.3" transform="matrix(-0.9949 0.1007 -0.1007 -0.9949 1426.4939 832.355)" fill="#838484" width="6.9" height="13.8"/>
</g>
<circle fill="#F6851F" cx="684.5" cy="454.1" r="1"/>
<circle fill="#1D7D3E" cx="695.1" cy="444.4" r="1"/>
<circle fill="#67BD45" cx="729" cy="434.2" r="1"/>
<circle fill="#425CA9" cx="720.7" cy="458" r="1"/>
<circle fill="#4953A4" cx="704.2" cy="476.3" r="1"/>
<circle fill="#EE273C" cx="732.4" cy="475.6" r="1"/>
<rect x="94.4" y="449.9" fill="#F68C1F" width="149.7" height="5.6"/>
<rect x="21.6" y="397.9" fill="#F68C1F" width="149.7" height="5.6"/>
<rect x="30.5" y="333.4" fill="#4F767A" width="17.3" height="64.5"/>
<rect x="47.8" y="345.6" fill="#217756" width="11.2" height="52.3"/>
<rect x="36.7" y="450.5" fill="#217756" width="11.2" height="52.3"/>
<rect x="28.2" y="463" fill="#72C6A2" width="8.5" height="39.8"/>
<rect x="28.2" y="463" fill="#134E72" width="8.5" height="4.8"/>
<rect x="28.2" y="498.1" fill="#134E72" width="8.5" height="4.8"/>
<rect x="36.7" y="450.5" fill="#0D5738" width="11.2" height="4.5"/>
<rect x="36.7" y="495.9" fill="#0D5738" width="11.2" height="4.5"/>
<rect x="36.7" y="477.6" fill="#0D5738" width="11.2" height="4.5"/>
<rect x="36.7" y="486.8" fill="#0D5738" width="11.2" height="4.5"/>
<rect x="36.7" y="468.7" fill="#0D5738" width="11.2" height="4.5"/>
<rect x="36.7" y="459.6" fill="#0D5738" width="11.2" height="4.5"/>
<rect x="59" y="336.1" fill="#444545" width="3" height="61.8"/>
<rect x="47.8" y="446.9" fill="#444545" width="1.5" height="56.1"/>
<rect x="52" y="446.9" fill="#444545" width="3.7" height="56.1"/>
<rect x="49.3" y="445.4" fill="#4F767A" width="2.6" height="57.5"/>
<rect x="62" y="350.7" fill="#C05C3A" width="7.7" height="47.2"/>
<rect x="55.7" y="457.4" fill="#C05C3A" width="7.7" height="47.2"/>
<rect x="69.7" y="350.7" fill="#AA4124" width="7.7" height="47.2"/>
<rect x="79.4" y="345.2" transform="matrix(-0.9953 9.713939e-02 -9.713939e-02 -0.9953 206.1739 732.6584)" fill="#4B87C6" width="11.7" height="52.3"/>
<rect x="79.1" y="346.9" transform="matrix(-0.9953 9.713939e-02 -9.713939e-02 -0.9953 199.6055 688.1862)" fill="#B0D6F2" width="7.9" height="4.1"/>
<polygon fill="#B0D6F2" points="86.1,382.5 81.3,373 83.9,362.6 89.2,372.3 "/>
<rect x="79.3" y="351.9" transform="matrix(-0.9953 9.713939e-02 -9.713939e-02 -0.9953 200.3509 695.1558)" fill="#B0D6F2" width="7.9" height="1.1"/>
<rect x="79.5" y="353.5" transform="matrix(-0.9953 9.713939e-02 -9.713939e-02 -0.9953 200.9101 698.3198)" fill="#B0D6F2" width="7.9" height="1.1"/>
<rect x="91.1" y="345.4" transform="matrix(-0.9953 9.713939e-02 -9.713939e-02 -0.9953 225.8527 732.1106)" fill="#F6C26C" width="8" height="52.3"/>
<rect x="93.4" y="347" transform="matrix(-0.9953 9.713939e-02 -9.713939e-02 -0.9953 225.1984 731.0491)" fill="#E69D3D" width="2.8" height="48"/>
<rect x="69.7" y="350.7" fill="#892E1C" width="7.7" height="3.1"/>
<rect x="72.5" y="355.4" fill="#F8E7D2" width="2.1" height="39"/>
<rect x="63.8" y="354.8" fill="#F79B79" width="3.9" height="39"/>
<rect x="33.4" y="337" fill="#194751" width="11.4" height="4.4"/>
<rect x="33.4" y="342.2" fill="#194751" width="11.4" height="1.6"/>
<rect x="33.4" y="344.8" fill="#194751" width="11.4" height="1.6"/>
<rect x="33.4" y="347.4" fill="#194751" width="11.4" height="1.6"/>
<rect x="33.4" y="349.9" fill="#194751" width="11.4" height="1.6"/>
<rect x="33.4" y="352.4" fill="#194751" width="11.4" height="1.6"/>
<rect x="33.4" y="355.2" fill="#194751" width="11.4" height="1.6"/>
<rect x="33.4" y="357.7" fill="#194751" width="11.4" height="1.6"/>
<rect x="33.4" y="360.3" fill="#194751" width="11.4" height="1.6"/>
<rect x="33.4" y="363" fill="#194751" width="11.4" height="1.6"/>
<rect x="33.4" y="365.5" fill="#194751" width="11.4" height="1.6"/>
<rect x="33.4" y="368.1" fill="#194751" width="11.4" height="1.6"/>
<rect x="33.4" y="371" fill="#194751" width="11.4" height="1.6"/>
<rect x="33.4" y="373.5" fill="#194751" width="11.4" height="1.6"/>
<rect x="33.4" y="376" fill="#194751" width="11.4" height="1.6"/>
<rect x="33.4" y="378.9" fill="#194751" width="11.4" height="16.9"/>
<rect x="47.8" y="347" fill="#255943" width="11.2" height="7"/>
<rect x="55.7" y="463.9" fill="#703522" width="7.7" height="3.1"/>
<path fill="#6ABA5A" d="M148.2,376.4c1.9-3.9,0.3-8.6-3.5-10.5c-2-1-4.3-1-6.2-0.3c0.4,0.1,0.8,0.3,1.3,0.5
	c3.9,1.9,5.4,6.6,3.5,10.5c-0.9,1.8-2.5,3.2-4.2,3.8C142.6,381.5,146.5,379.9,148.2,376.4z"/>
<g>
	<polygon fill="#136E54" points="137.4,375.1 137.4,397.9 131,397.9 121.9,375.1 	"/>
	<polygon fill="#0B563E" points="152.9,375.1 143.9,397.9 137.4,397.9 137.4,375.1 	"/>
	<rect x="121.9" y="375.1" fill="#07422E" width="31" height="4.9"/>
</g>
<polygon fill="#A64424" points="201.8,435.4 201.8,450 197.7,450 191.8,435.4 "/>
<polygon fill="#922B1E" points="211.8,435.4 205.9,450 201.8,450 201.8,435.4 "/>
<rect x="191.8" y="435.4" fill="#7F2A1C" width="19.9" height="3.2"/>
<polygon fill="#DBE255" points="176.7,435.4 176.7,450 172.5,450 166.7,435.4 "/>
<polygon fill="#D3B82A" points="186.6,435.4 180.8,450 176.7,450 176.7,435.4 "/>
<rect x="166.7" y="435.4" fill="#B19430" width="19.9" height="3.2"/>
<polygon fill="#4F7EC0" points="151.4,435.4 151.4,450 147.3,450 141.4,435.4 "/>
<polygon fill="#263C93" points="161.4,435.4 155.6,450 151.4,450 151.4,435.4 "/>
<rect x="141.4" y="435.4" fill="#1E2655" width="19.9" height="3.2"/>
<polygon fill="#7E55A3" points="126.3,435.4 126.3,450 122.2,450 116.3,435.4 "/>
<polygon fill="#2A1954" points="136.3,435.4 130.4,450 126.3,450 126.3,435.4 "/>
<rect x="116.3" y="435.4" fill="#1B1449" width="19.9" height="3.2"/>
<circle fill="#E691BD" cx="171.1" cy="416.9" r="1"/>
<circle fill="#E691BD" cx="175.7" cy="421.2" r="1"/>
<circle fill="#E691BD" cx="171.6" cy="427.3" r="1"/>
<circle fill="#E691BD" cx="179.5" cy="431.9" r="1"/>
<circle fill="#E691BD" cx="176.3" cy="425.3" r="1"/>
<circle fill="#E691BD" cx="174.1" cy="411.6" r="1"/>
<circle fill="#FFFFFF" cx="32.4" cy="472.1" r="2.5"/>
<rect x="21.6" y="502.9" fill="#F68C1F" width="149.7" height="5.6"/>
<rect x="75.1" y="486.8" fill="#F6C26C" width="45.1" height="16.1"/>
<pattern  id="SVGID_1_" xlink:href="#New_Pattern" patternTransform="matrix(1 0 0 -1 0 -17407.5)">
</pattern>
<rect x="75.1" y="486.8" fill="url(#SVGID_1_)" width="45.1" height="16.1"/>
<polygon fill="#FFFFFF" points="86.4,486.8 82.3,476.1 113.1,476.1 109.4,486.8 "/>
<path fill="#6D182F" d="M129.7,467v35.9h37V467H129.7z M164.6,500.9h-32.9V469h32.9V500.9z"/>
<rect x="131.8" y="469" fill="#E19BB0" width="32.9" height="31.9"/>
<path fill="#6D182F" d="M137.8,474.8V495h20.8v-20.2H137.8z M157.4,493.9h-18.5V476h18.5V493.9z"/>
<rect x="138.9" y="475.9" fill="#FFFFFF" width="18.5" height="17.9"/>
<circle fill="#F8C15F" cx="148" cy="484.9" r="4.1"/>
</svg>
