<?xml version="1.0" encoding="utf-8"?>
<!-- Generator: Adobe Illustrator 18.1.1, SVG Export Plug-In . SVG Version: 6.00 Build 0)  -->
<svg version="1.1" id="Layer_1" xmlns="http://www.w3.org/2000/svg" xmlns:xlink="http://www.w3.org/1999/xlink" x="0px" y="0px"
	 viewBox="272.1 444.6 214.5 238.5" enable-background="new 272.1 444.6 214.5 238.5" xml:space="preserve">
<path fill="#020202" d="M381.1,592.2l-0.9,1.3l-0.3,0.3l-0.1-0.3l-0.9-1.3c0.4-0.3,0.8-0.5,1-0.8
	C380.3,591.7,380.7,591.9,381.1,592.2z"/>
<path fill="#F68C1F" d="M439.2,702.8c-0.1,8.3-0.4,13.3-0.4,13.3H319.6c0,0-10.9-232.3,59.5-141.8c-0.4,0.5-0.8,1.2-1.2,1.7l1,2.5
	l0.1,0.5l0.3-0.5l1-2.5c-0.5-0.6-0.9-1.2-1.3-1.7C439.4,497,440.3,654.7,439.2,702.8z"/>
<path fill="#020202" d="M381.1,592.2l-0.9,1.3l-0.3,0.3l-0.1-0.3l-0.9-1.3c0.4-0.3,0.8-0.5,1-0.8
	C380.3,591.7,380.7,591.9,381.1,592.2z"/>
<polygon fill="#020202" points="379.8,593.5 380.2,593.5 380,593.8 "/>
<path fill="#F68C1F" d="M454.5,555.7c0,0-0.6,6.1,5.8,8c0,0-39,36.8-81,36.8H379c-41.5,0.1-81-36.8-81-36.8c6.3-1.8,5.8-8,5.8-8
	c-2.7,0.5-10.5-3.1-10.5-3.1c6.2-2.5,7.2-7.2,7.2-7.2c-3.9,0-7.2-5.6-7.2-5.6c5,1.7,10.6-3.9,10.6-3.9l-5.6-4.4
	c7.2-0.8,11.1-20.6,11.1-20.6c-6.1-14.1-5.7-32.4-5.3-39.9c0.1-1.7,1.9-2.7,3.5-2.1l29.2,13.1c3.1,1.4,6.5,1.7,9.7,1.2
	c12.9-2.3,30-2.8,32.6-2.8c0,0,0.1,0,0.3,0c2.6,0.1,19.7,0.6,32.6,2.8c3.2,0.5,6.6,0.3,9.7-1.2l29.2-13.1c1.6-0.6,3.4,0.4,3.5,2.1
	c0.4,7.5,0.8,25.6-5.3,39.9c0,0,3.9,19.7,11.1,20.6l-5.6,4.4c0,0,5.6,5.6,10.6,3.9c0,0-3.4,5.6-7.2,5.6c0,0,1,4.8,7.2,7.2
	C465,552.6,457.2,556.2,454.5,555.7z"/>
<path fill="#FBDEC8" d="M335.8,587.4c0,0,3.8-40,43.1-40.6c39.3-0.5,41.9,41.4,41.9,41.4s-17.2,10.7-41.9,10.7
	C355.6,599.1,335.8,587.4,335.8,587.4z"/>
<path fill="#8AE9F9" d="M362.2,543c0,9.1-6.7,15.1-15.8,15.1c-9.1,0-15.8-7.5-15.8-15.1c0-9.1,7.4-16.4,16.4-16.4
	C354.1,526.6,362.2,534,362.2,543z"/>
<circle fill="#020202" cx="347" cy="543" r="10"/>
<path fill="#8AE9F9" d="M393,543c0,9.1,6.7,15.1,15.8,15.1c9.1,0,15.8-7.5,15.8-15.1c0-9.1-7.4-16.4-16.4-16.4
	C401,526.6,393,534,393,543z"/>
<circle fill="#020202" cx="408.2" cy="543" r="10"/>
<polyline fill="none" stroke="#020202" stroke-width="2" stroke-linecap="round" stroke-miterlimit="10" points="374.4,559.3 
	379.2,563.1 383.7,559.3 "/>
<path fill="none" stroke="#020202" stroke-width="2" stroke-linecap="round" stroke-miterlimit="10" d="M367.8,572
	c0,0,9.6,4.8,11.3-8.9"/>
<path fill="none" stroke="#020202" stroke-width="2" stroke-linecap="round" stroke-miterlimit="10" d="M390.3,572
	c0,0-9.6,4.8-11.3-8.9"/>
<path fill="#FAC4BD" d="M448.3,511.1l-2.3-6.7c-1.9,1.7-6.5-0.1-6.5-0.1c1.9-1.3,1.3-6,1.3-6c-3.9,1.9-9.4-3.4-9.4-3.4
	c3.2-1.4,2.1-4.4,2.1-4.4c-4.7,1.2-7.6-1.2-7.6-1.2c11.4-8.9,27.4-16.8,27.4-16.8S456.4,487.1,448.3,511.1z"/>
<path fill="#FCD2D0" d="M310.6,510.5l1.7-4.9c1.9,1.7,6.5-0.1,6.5-0.1c-1.9-1.3-1.3-6-1.3-6c3.9,1.9,9.4-3.4,9.4-3.4
	c-3.2-1.4-2.1-4.4-2.1-4.4c4.7,1.2,7.6-1.2,7.6-1.2c-11.4-8.9-27.2-18.1-27.2-18.1S302.4,486.7,310.6,510.5z"/>
<ellipse fill="#FBDEC8" cx="380.2" cy="658.8" rx="41.3" ry="43.7"/>
<path fill="#FBDEC8" d="M372.6,620.5c0,0,6-8.4,1.9-13.1c0,0,7.6,1.7,8.8,9.4L372.6,620.5z"/>
<path fill="#FBDEC8" d="M380.1,624.9c0,0-1.7-14.1,4.9-16.2c0,0-1.8,7.2,4.3,9.6L380.1,624.9z"/>
<path fill="#FFFFFF" d="M338.7,534.1c0.4,0.5,0.8,1.3,1.4,1.9c0.6,0.8,0.5,1.8-0.3,2.3c-1.2,0.9-2.5,1.9-3.6,5.8
	c0,0-5.4-5.8,1.3-10.5C337.9,533.6,338.4,533.7,338.7,534.1z"/>
<path fill="#FFFFFF" d="M400.7,534.2c0.3,0.5,0.8,1.3,1.3,2.1c0.6,0.8,0.4,1.8-0.4,2.3c-1.2,0.8-2.6,1.8-4,5.6c0,0-5-6.2,1.9-10.4
	C399.9,533.6,400.4,533.8,400.7,534.2z"/>
</svg>
