<?xml version="1.0" encoding="utf-8"?>
<!-- Generator: Adobe Illustrator 18.1.1, SVG Export Plug-In . SVG Version: 6.00 Build 0)  -->
<svg version="1.1" id="Layer_1" xmlns="http://www.w3.org/2000/svg" xmlns:xlink="http://www.w3.org/1999/xlink" x="0px" y="0px"
	 viewBox="0 0 612 792" style="enable-background:new 0 0 612 792;" xml:space="preserve">
<style type="text/css">
	.st0{fill:#020202;}
	.st1{fill:#F68C1F;stroke:#000000;stroke-width:2;stroke-miterlimit:10;}
	.st2{fill:#F68C1F;stroke:#000000;stroke-miterlimit:10;}
	.st3{fill:none;stroke:#000000;stroke-width:2;stroke-miterlimit:10;}
	.st4{fill:#FBDEC8;}
	.st5{fill:#B5E3F0;stroke:#000000;stroke-width:2;stroke-miterlimit:10;}
	.st6{fill:none;stroke:#020202;stroke-width:2;stroke-linecap:round;stroke-miterlimit:10;}
	.st7{fill:#FAC4BD;stroke:#000000;stroke-width:1.5;stroke-miterlimit:10;}
	.st8{fill:#FFFFFF;}
</style>
<path class="st0" d="M294.5,380.7l-0.7,1l-0.2,0.2l-0.1-0.2l-0.7-1c0.3-0.2,0.6-0.4,0.8-0.6C293.9,380.3,294.2,380.5,294.5,380.7z"
	/>
<path class="st1" d="M339.4,466.2c-0.1,6.4-0.3,10.3-0.3,10.3H247c0,0-8.4-179.5,46-109.6c-0.3,0.4-0.6,0.9-0.9,1.3l0.8,1.9l0.1,0.4
	l0.2-0.4l0.8-1.9c-0.4-0.5-0.7-0.9-1-1.3C339.5,307.1,340.2,429,339.4,466.2z"/>
<path class="st0" d="M294.5,380.7l-0.7,1l-0.2,0.2l-0.1-0.2l-0.7-1c0.3-0.2,0.6-0.4,0.8-0.6C293.9,380.3,294.2,380.5,294.5,380.7z"
	/>
<polygon class="st0" points="293.5,381.7 293.8,381.7 293.6,381.9 "/>
<path class="st2" d="M351.2,352.5c0,0-0.5,4.7,4.5,6.2c0,0-30.1,28.4-62.6,28.4h-0.2c-32.1,0.1-62.6-28.4-62.6-28.4
	c4.9-1.4,4.5-6.2,4.5-6.2c-2.1,0.4-8.1-2.4-8.1-2.4c4.8-1.9,5.6-5.6,5.6-5.6c-3,0-5.6-4.3-5.6-4.3c3.9,1.3,8.2-3,8.2-3l-4.3-3.4
	c5.6-0.6,8.6-15.9,8.6-15.9c-4.7-10.9-4.4-25-4.1-30.8c0.1-1.3,1.5-2.1,2.7-1.6l22.6,10.1c2.4,1.1,5,1.3,7.5,0.9
	c10-1.8,23.2-2.2,25.2-2.2c0,0,0.1,0,0.2,0c2,0.1,15.2,0.5,25.2,2.2c2.5,0.4,5.1,0.2,7.5-0.9l22.6-10.1c1.2-0.5,2.6,0.3,2.7,1.6
	c0.3,5.8,0.6,19.8-4.1,30.8c0,0,3,15.2,8.6,15.9l-4.3,3.4c0,0,4.3,4.3,8.2,3c0,0-2.6,4.3-5.6,4.3c0,0,0.8,3.7,5.6,5.6
	C359.3,350.1,353.3,352.9,351.2,352.5z"/>
<path class="st3" d="M351.1,352.5c0,0-0.5,4.7,4.5,6.2c0,0-30.1,28.4-62.6,28.4h-0.2c-32.1,0.1-62.6-28.4-62.6-28.4
	c4.9-1.4,4.5-6.2,4.5-6.2c-2.1,0.4-8.1-2.4-8.1-2.4c4.8-1.9,5.6-5.6,5.6-5.6c-3,0-5.6-4.3-5.6-4.3c3.9,1.3,8.2-3,8.2-3l-4.3-3.4
	c5.6-0.6,8.6-15.9,8.6-15.9c-4.7-10.9-4.4-25-4.1-30.8c0.1-1.3,1.5-2.1,2.7-1.6l22.6,10.1c2.4,1.1,5,1.3,7.5,0.9
	c10-1.8,23.2-2.2,25.2-2.2c0,0,0.1,0,0.2,0c2,0.1,15.2,0.5,25.2,2.2c2.5,0.4,5.1,0.2,7.5-0.9l22.6-10.1c1.2-0.5,2.6,0.3,2.7,1.6
	c0.3,5.8,0.6,19.8-4.1,30.8c0,0,3,15.2,8.6,15.9l-4.3,3.4c0,0,4.3,4.3,8.2,3c0,0-2.6,4.3-5.6,4.3c0,0,0.8,3.7,5.6,5.6
	C359.2,350.1,353.2,352.9,351.1,352.5z"/>
<path class="st4" d="M259.5,377c0,0,2.9-30.9,33.3-31.4c30.4-0.4,32.4,32,32.4,32s-13.3,8.3-32.4,8.3C274.8,386,259.5,377,259.5,377
	z"/>
<path class="st5" d="M279.9,342.7c0,7-5.2,11.7-12.2,11.7c-7,0-12.2-5.8-12.2-11.7c0-7,5.7-12.7,12.7-12.7
	C273.6,330,279.9,335.7,279.9,342.7z"/>
<circle class="st0" cx="268.1" cy="342.7" r="7.7"/>
<path class="st5" d="M303.7,342.7c0,7,5.2,11.7,12.2,11.7s12.2-5.8,12.2-11.7c0-7-5.7-12.7-12.7-12.7
	C309.9,330,303.7,335.7,303.7,342.7z"/>
<circle class="st0" cx="315.4" cy="342.7" r="7.7"/>
<polyline class="st6" points="289.3,355.3 293,358.2 296.5,355.3 "/>
<path class="st6" d="M284.2,365.1c0,0,7.4,3.7,8.7-6.9"/>
<path class="st6" d="M301.6,365.1c0,0-7.4,3.7-8.7-6.9"/>
<path class="st7" d="M346.4,318l-1.8-5.2c-1.5,1.3-5-0.1-5-0.1c1.5-1,1-4.6,1-4.6c-3,1.5-7.3-2.6-7.3-2.6c2.5-1.1,1.6-3.4,1.6-3.4
	c-3.6,0.9-5.9-0.9-5.9-0.9c8.8-6.9,21.9-14,21.9-14S352.7,299.5,346.4,318z"/>
<path class="st7" d="M239.5,319l1.8-5.2c1.5,1.3,5-0.1,5-0.1c-1.5-1-1-4.6-1-4.6c3,1.5,7.3-2.6,7.3-2.6c-2.5-1.1-1.6-3.4-1.6-3.4
	c3.6,0.9,5.9-0.9,5.9-0.9c-8.8-6.9-22.1-14.6-22.1-14.6S233.2,300.6,239.5,319z"/>
<ellipse class="st4" cx="293.8" cy="432.2" rx="31.9" ry="33.8"/>
<path class="st4" d="M287.9,402.6c0,0,4.6-6.5,1.5-10.1c0,0,5.9,1.3,6.8,7.3L287.9,402.6z"/>
<path class="st4" d="M293.7,406c0,0-1.3-10.9,3.8-12.5c0,0-1.4,5.6,3.3,7.4L293.7,406z"/>
<path class="st8" d="M261.7,335.8c0.3,0.4,0.6,1,1.1,1.5c0.5,0.6,0.4,1.4-0.2,1.8c-0.9,0.7-1.9,1.5-2.8,4.5c0,0-4.2-4.5,1-8.1
	C261.1,335.4,261.5,335.5,261.7,335.8z"/>
<path class="st8" d="M309.6,335.9c0.2,0.4,0.6,1,1,1.6c0.5,0.6,0.3,1.4-0.3,1.8c-0.9,0.6-2,1.4-3.1,4.3c0,0-3.9-4.8,1.5-8
	C309,335.4,309.4,335.6,309.6,335.9z"/>
<g>
</g>
<g>
</g>
<g>
</g>
<g>
</g>
<g>
</g>
<g>
</g>
</svg>
