<?xml version="1.0" encoding="utf-8"?>
<!-- Generator: Adobe Illustrator 18.1.1, SVG Export Plug-In . SVG Version: 6.00 Build 0)  -->
<svg version="1.1" id="Layer_1" xmlns="http://www.w3.org/2000/svg" xmlns:xlink="http://www.w3.org/1999/xlink" x="0px" y="0px"
	 viewBox="0 0 106.3 102.9" style="enable-background:new 0 0 106.3 102.9;" xml:space="preserve">
<style type="text/css">
	.st0{fill:#FFFFFF;}
	.st1{fill:#F89F63;}
	.st2{fill:#F79452;}
</style>
<circle class="st0" cx="53.8" cy="52.6" r="37.7"/>
<path class="st1" d="M56.7,90.2v1.6h-5.9v-1.6c0-1,0.4-2,1.1-2.8l1.9-2.2l1.9,2.2C56.4,88.2,56.7,89.2,56.7,90.2z"/>
<path class="st1" d="M75.1,83.7l0.8,1.4L70.8,88L70,86.6c-0.5-0.9-0.7-2-0.5-3l0.5-2.9l2.8,1C73.8,82.1,74.6,82.8,75.1,83.7z"/>
<path class="st1" d="M87.8,68.8l1.4,0.8l-2.9,5.1L84.9,74c-0.9-0.5-1.6-1.3-1.9-2.3l-1-2.8l2.9-0.5C85.9,68.1,86.9,68.3,87.8,68.8z"
	/>
<path class="st1" d="M91.4,49.6H93v5.9h-1.6c-1,0-2-0.4-2.8-1.1l-2.2-1.9l2.2-1.9C89.4,50,90.4,49.6,91.4,49.6z"/>
<path class="st1" d="M84.9,31.2l1.4-0.8l2.9,5.1l-1.4,0.8c-0.9,0.5-2,0.7-3,0.5L82,36.3l1-2.8C83.3,32.6,84,31.7,84.9,31.2z"/>
<path class="st1" d="M70,18.5l0.8-1.4l5.1,2.9l-0.8,1.4c-0.5,0.9-1.3,1.6-2.3,1.9l-2.8,1l-0.5-2.9C69.3,20.5,69.5,19.4,70,18.5z"/>
<path class="st1" d="M50.8,15v-1.6h5.9V15c0,1-0.4,2-1.1,2.8L53.8,20l-1.9-2.2C51.2,17,50.8,16,50.8,15z"/>
<path class="st1" d="M32.4,21.5l-0.8-1.4l5.1-2.9l0.8,1.4c0.5,0.9,0.7,2,0.5,3l-0.5,2.9l-2.8-1C33.8,23.1,32.9,22.4,32.4,21.5z"/>
<path class="st1" d="M19.7,36.3l-1.4-0.8l2.9-5.1l1.4,0.8c0.9,0.5,1.6,1.3,1.9,2.3l1,2.8l-2.9,0.5C21.7,37,20.6,36.9,19.7,36.3z"/>
<path class="st1" d="M16.2,55.5h-1.6v-5.9h1.6c1,0,2,0.4,2.8,1.1l2.2,1.9L19,54.5C18.2,55.2,17.2,55.5,16.2,55.5z"/>
<path class="st1" d="M22.7,74l-1.4,0.8l-2.9-5.1l1.4-0.8c0.9-0.5,2-0.7,3-0.5l2.9,0.5l-1,2.8C24.3,72.6,23.6,73.4,22.7,74z"/>
<path class="st1" d="M37.5,86.6L36.7,88l-5.1-2.9l0.8-1.4c0.5-0.9,1.3-1.6,2.3-1.9l2.8-1l0.5,2.9C38.2,84.7,38,85.7,37.5,86.6z"/>
<path class="st1" d="M56.7,90.2v1.6h-5.9v-1.6c0-1,0.4-2,1.1-2.8l1.9-2.2l1.9,2.2C56.4,88.2,56.7,89.2,56.7,90.2z"/>
<path class="st2" d="M53.8,8.6c-24.3,0-44,19.7-44,44c0,24.3,19.7,44,44,44c24.3,0,44-19.7,44-44C97.8,28.3,78.1,8.6,53.8,8.6z
	 M53.8,90.3c-20.8,0-37.7-16.9-37.7-37.7S33,14.9,53.8,14.9s37.7,16.9,37.7,37.7S74.6,90.3,53.8,90.3z"/>
<g>
</g>
<g>
</g>
<g>
</g>
<g>
</g>
<g>
</g>
<g>
</g>
</svg>
