<?xml version="1.0" encoding="utf-8"?>
<!-- Generator: Adobe Illustrator 18.1.1, SVG Export Plug-In . SVG Version: 6.00 Build 0)  -->
<svg version="1.1" id="Layer_1" xmlns="http://www.w3.org/2000/svg" xmlns:xlink="http://www.w3.org/1999/xlink" x="0px" y="0px"
	 width="37.3px" height="35.1px" viewBox="0 0 37.3 35.1" style="enable-background:new 0 0 37.3 35.1;" xml:space="preserve">
<style type="text/css">
	.st0{fill:#FC8754;}
	.st1{fill:#FFFFFF;}
</style>
<g>
	<g id="XMLID_1_">
		<g>
			<path class="st0" d="M34.1,14.1c0,5.5,0,11.1,0,16.6c0,0.8-0.6,1.3-1.4,1.3c-4.7,0-9.3,0-14,0c-4.6,0-9.3,0-13.9,0
				c-1,0-1.5-0.5-1.5-1.5c0-5.4,0-10.8,0-16.2c0-0.5,0.2-1,0.5-1.3c2.3-2.3,4.6-4.7,7.2-6.7c1.6-1.3,3.3-2.4,5.4-2.9
				c2.2-0.6,4.2-0.1,6.2,0.9c2.1,1.1,3.9,2.6,5.7,4.2c1.8,1.6,3.6,3.2,5.4,4.7C33.9,13.4,34.1,13.7,34.1,14.1z M31.4,28.1
				c0-4,0-7.8,0-11.8c-2,1.7-4,3.4-6,5.1C27.5,23.6,29.4,25.8,31.4,28.1z M31.1,14.4c-0.1-0.1-0.2-0.2-0.3-0.3
				c-1.9-1.6-3.7-3.3-5.6-4.9c-1.4-1.2-2.8-2.2-4.4-3c-1.7-0.8-3.4-0.8-5,0C15,6.6,14.3,7,13.7,7.5c-2.6,1.9-4.9,4.2-7.2,6.4
				C6.4,14,6.2,14.1,6,14.3c2.4,2,4.7,3.9,6.9,5.8c0.4-0.5,0.8-0.9,1.2-1.4c0.2-0.2,0.4-0.3,0.7-0.3c2.5,0,5.1,0,7.6,0
				c0.3,0,0.5,0.1,0.7,0.3c0.4,0.5,0.8,0.9,1.2,1.4C26.6,18.2,28.9,16.3,31.1,14.4z M6.8,29.5c7.9,0,15.7,0,23.6,0
				c0-0.1-0.1-0.1-0.1-0.1c-2.7-3-5.4-6.1-8.1-9.1c-0.1-0.1-0.3-0.2-0.5-0.2c-2.1,0-4.2,0-6.3,0c-0.2,0-0.4,0.1-0.5,0.2
				c-2.7,3-5.3,5.9-7.9,8.9C7,29.3,6.9,29.3,6.8,29.5z M5.9,28.1c2-2.3,4-4.5,6-6.7c-2-1.7-4-3.4-6-5.1C5.9,20.2,5.9,24.1,5.9,28.1z
				"/>
			<path class="st1" d="M31.4,16.3c0,3.9,0,7.8,0,11.8c-2-2.3-4-4.5-6-6.7C27.5,19.6,29.4,18,31.4,16.3z"/>
			<path class="st1" d="M30.8,14.1c0.1,0.1,0.2,0.2,0.3,0.3c-2.3,1.9-4.5,3.8-6.8,5.7c-0.4-0.5-0.8-0.9-1.2-1.4
				c-0.2-0.2-0.4-0.3-0.7-0.3c-2.5,0-5.1,0-7.6,0c-0.3,0-0.5,0.1-0.7,0.3c-0.4,0.5-0.8,0.9-1.2,1.4c-2.3-1.9-4.5-3.8-6.9-5.8
				c0.2-0.1,0.4-0.2,0.5-0.4c2.3-2.3,4.5-4.6,7.2-6.4C14.3,7,15,6.6,15.7,6.2c1.7-0.8,3.4-0.8,5,0c1.6,0.8,3.1,1.8,4.4,3
				C27.1,10.8,28.9,12.4,30.8,14.1z"/>
			<path class="st1" d="M30.5,29.5c-7.9,0-15.7,0-23.6,0C6.9,29.3,7,29.3,7,29.2c2.6-3,5.3-5.9,7.9-8.9c0.1-0.1,0.4-0.2,0.5-0.2
				c2.1,0,4.2,0,6.3,0c0.2,0,0.4,0.1,0.5,0.2c2.7,3,5.4,6,8.1,9.1C30.4,29.3,30.4,29.4,30.5,29.5z"/>
			<path class="st1" d="M11.8,21.3c-2,2.2-3.9,4.5-6,6.7c0-4,0-7.8,0-11.8C7.9,18,9.8,19.6,11.8,21.3z"/>
		</g>
		<g>
		</g>
	</g>
</g>
<g>
</g>
<g>
</g>
<g>
</g>
<g>
</g>
<g>
</g>
<g>
</g>
</svg>
