<?xml version="1.0" encoding="utf-8"?>
<!-- Generator: Adobe Illustrator 18.1.1, SVG Export Plug-In . SVG Version: 6.00 Build 0)  -->
<svg version="1.1" id="Layer_1" xmlns="http://www.w3.org/2000/svg" xmlns:xlink="http://www.w3.org/1999/xlink" x="0px" y="0px"
	 viewBox="0 0 81 67" style="enable-background:new 0 0 81 67;" xml:space="preserve">
<style type="text/css">
	.st0{fill:#FFFFFF;}
</style>
<path class="st0" d="M28.5,11l-0.3,0.3c0,0.1,0,0.1,0,0.1c0,0.1,0,0.2-0.1,0.2c-0.1,0.1-0.1,0.1-0.2,0.1c-0.1,0-0.2,0-0.4-0.1
	l0.8-0.8c-0.1-0.1-0.2-0.2-0.2-0.2c-0.1,0-0.1-0.1-0.2-0.1l-0.2-0.4l-0.2,0.4c0,0-0.1,0-0.1,0c-0.1,0-0.2,0.1-0.3,0.2
	C27.1,10.8,27,10.9,27,11l-0.4,0.2l0.3,0.2c0,0.2,0.1,0.3,0.3,0.5c0.2,0.2,0.4,0.3,0.6,0.3c0.2,0,0.4-0.1,0.5-0.3
	c0.2-0.2,0.3-0.4,0.3-0.6C28.6,11.2,28.6,11.1,28.5,11z M27.3,11.2c0-0.1,0-0.2,0.1-0.2c0.1-0.1,0.2-0.1,0.2-0.1
	c0.1,0,0.2,0,0.3,0.1l-0.5,0.5C27.3,11.3,27.3,11.3,27.3,11.2z"/>
<g>
</g>
<g>
</g>
<g>
</g>
<g>
</g>
<g>
</g>
<g>
</g>
</svg>
