<?xml version="1.0" encoding="utf-8"?>
<!-- Generator: Adobe Illustrator 18.1.1, SVG Export Plug-In . SVG Version: 6.00 Build 0)  -->
<svg version="1.1" id="Layer_1" xmlns="http://www.w3.org/2000/svg" xmlns:xlink="http://www.w3.org/1999/xlink" x="0px" y="0px"
	 viewBox="0 0 603.6 608.7" style="enable-background:new 0 0 603.6 608.7;" xml:space="preserve">
<style type="text/css">
	.st0{fill:#F99D41;}
</style>
<path class="st0" d="M323.7,21c1.3,2.2,2.1,3.6,2.9,5.1c17.1,30.8,34.1,61.6,51.3,92.4c1.1,1.9,3,4.1,5,4.8
	c32.4,11.5,59.9,30.6,84.6,54c10.3,9.7,20.3,19.7,30.3,29.6c1.1,1,2,2.2,3.5,3.8c-72.7,72.6-145.1,145-218,217.8
	c2.3,2.1,4.2,4.1,6.4,5.6c9.8,6.6,19.2,14.1,29.6,19.4c25.4,12.9,51.5,12.7,77.3,0.7c22.2-10.3,39.7-26.2,53-46.6
	c13.7-21.3,16.4-44.3,9.6-68.6c-0.8-2.8-1-4.9,1.4-7.3c24.7-24.5,49.2-49.1,73.8-73.7c0.8-0.8,1.8-1.6,3.1-2.6
	c1.4,1.8,2.8,3.4,3.9,5.1c10.6,15.9,16.1,33.6,18.7,52.3c5,34.6,2.2,68.4-11.2,101c-13.1,31.9-33.5,58.7-57.9,82.6
	c-33.3,32.6-72.7,53.7-118.5,63c-40.8,8.4-79.6,3.3-115.8-17.2c-55.4-31.3-98.4-75.1-128.2-131.5c-8.9-16.9-14.6-35-18-53.8
	c-0.4-2.1-2.5-4.5-4.5-5.6c-24.5-13.9-49.2-27.7-73.8-41.5c-2.2-1.2-4.4-2.6-7.2-4.2c1.8-1.1,3-1.9,4.3-2.6
	c29.3-15.3,58.6-30.7,88-46c3.4-1.8,5.5-4.2,7.2-7.6c30.5-62.5,77.9-106.4,143.7-129.9c2.3-0.8,4.5-3,5.7-5.1
	c15.8-29.4,31.4-59,47-88.5C321.7,24.5,322.4,23.2,323.7,21z M368.6,239.2c-5.2-3.8-10.1-7.8-15.4-11.3
	c-19.6-12.8-40.9-17.9-64.2-13.1c-24.3,5.1-43.1,18.7-58.9,37.2c-13.5,15.8-22.2,33.7-22,55c0.3,24.9,9.9,46.6,24.5,66.3
	c0.3,0.5,0.9,0.7,0.9,0.7C278.5,329.2,323.2,284.5,368.6,239.2z"/>
</svg>
