<?xml version="1.0" encoding="utf-8"?>
<!-- Generator: Adobe Illustrator 18.1.1, SVG Export Plug-In . SVG Version: 6.00 Build 0)  -->
<svg version="1.1" id="Layer_1" xmlns="http://www.w3.org/2000/svg" xmlns:xlink="http://www.w3.org/1999/xlink" x="0px" y="0px"
	 viewBox="0 0 422.6 83.2" style="enable-background:new 0 0 422.6 83.2;" xml:space="preserve">
<style type="text/css">
	.st0{fill:#494949;}
</style>
<g id="_x36_mcJ94.tif">
	<g>
		<path class="st0" d="M91.7,51.8c5-12.3,12.6-22.9,22-32.3c7-7,14.7-12.8,24.5-15.2c3.8-1,7.7-1.2,11.6-0.5
			c1.3,0.2,2.6,0.6,3.7,1.4c7.7,5.3,12.2,12.1,10.7,22c-1.7,11.4-5.2,22.1-12,31.6c-5.4,7.6-12.4,13-21.2,16
			c-0.5,0.2-1.2,0.2-1.7,0.1c-12.5-3.2-24-8.4-33.4-17.5c-1.4-1.4-2.7-2.9-4.1-4.3C91.7,52.5,91.7,52.2,91.7,51.8z M135.5,23.8
			c-1,0.2-2.5,0.3-3.9,0.9c-4.2,1.6-7.1,4.4-7.5,9.1c-0.4,4.2,1.6,7.3,5,9.5c4.4,2.9,10.8,2.5,14.9-0.7c5.1-4,5.5-10.8,0.9-15.2
			C142.5,25,139.4,24,135.5,23.8z"/>
		<path class="st0" d="M206.3,0.4c-1.3,2.4-2.7,4.7-4,7.1c-4.4,8.1-6.9,16.9-8.3,26c0,0.1,0.1,0.2,0.2,0.6c3.7,0.3,7.5,0.6,11.3,0.9
			c2.7-12.3,7.4-22.9,20.4-27.4c-5.4,8.6-8.7,18-10,28.2c4.6,0.4,9.1,0.8,13.7,1.2c2-9.8,5.7-18.4,16.1-22.2
			c-4.3,7-6.9,14.6-7.9,22.9c5.3,0.4,10.5,0.9,15.7,1.3c3.1-11.1,6.1-15.4,12-17c-1.3,2.8-2.7,5.5-3.7,8.4c-1,2.8-1.5,5.9-2.3,9.1
			c3.9,0.3,7.4,0.6,11,0.9c1.1-4.9,2.5-9.4,7.7-11.2c-1.9,3.6-3.3,7.3-3.6,11.5c3.4,0.3,6.7,0.6,9.9,0.9c0.1,0.3,0.1,0.4,0.1,0.6
			c-0.4,3.1-0.4,3.1-3.6,3.1c-2,0-4,0-6,0c-0.1,0-0.2,0.1-0.7,0.2c0.3,1.5,0.4,3.1,0.8,4.7c0.4,1.5,0.9,3,1.5,4.9
			c-3.8-2.4-5.2-5.8-6.1-9.7c-3.6,0-7.2,0-11,0c-0.2,5.8,1.3,11.2,3.7,16.9c-3.6-2-5.8-4.6-7.2-7.9c-1-2.5-1.6-5.2-2.4-7.7
			c-0.2-0.5-0.8-1.4-1.2-1.4c-5-0.1-9.9-0.1-15.1-0.1c0,8.4,1.6,16.2,5,23.8c-6.2-1.9-10.9-10.5-13.2-23.7c-4.6,0-9.2,0-14,0
			c-0.1,10.8,2,21.1,6.5,31c-8.6-3.7-14.2-14.1-16.7-31.2c-1.9,0-3.9,0-5.9,0c-1.9,0-3.8,0-5.9,0c-0.3,13.4,2.2,25.9,7.9,38.4
			c-3.6-1.8-6.1-3.9-8.3-6.4c-6.3-7.1-9.6-15.5-11-24.7c-0.3-1.6-0.5-3.3-0.5-4.9c0-1.8-0.6-2.6-2.5-2.4c-2.8,0.2-5.5,0-8.6,0
			c0.7-4.4,1.3-8.5,2-12.9c3.2,0.2,6.3,0.5,9.5,0.7c0.7-2.6,1.3-5.2,2.1-7.8c2.7-8.4,7-15.8,14.4-20.9c2.3-1.6,5-2.6,7.5-3.9
			C205.8,0.4,206.1,0.4,206.3,0.4z"/>
		<path class="st0" d="M324.1,81.3c-3.5-2.8-6.9-5.2-9.9-8c-8-7.6-15.8-15.4-23.6-23.1c-0.5-0.5-0.8-1.5-0.8-2.2
			c0.5-4.7,1.1-9.5,1.7-14.2c0.1-0.6,0.5-1.3,0.9-1.6c10.8-8.5,21.5-17.3,33.3-24.5c1-0.6,2.1-1.1,3.2-1.7c0.3-0.2,0.7-0.2,1.4-0.5
			c-0.5,1.2-1,2.1-1.4,3c-3.2,7.3-6.8,14.5-9.6,22c-4.4,11.9-4,24.1-0.3,36.1C320.6,71.4,322.3,76.1,324.1,81.3z"/>
	</g>
</g>
</svg>
