<?xml version="1.0" encoding="utf-8"?>
<!-- Generator: Adobe Illustrator 18.1.1, SVG Export Plug-In . SVG Version: 6.00 Build 0)  -->
<svg version="1.1" id="Layer_1" xmlns="http://www.w3.org/2000/svg" xmlns:xlink="http://www.w3.org/1999/xlink" x="0px" y="0px"
	 viewBox="0 0 792 490.3" style="enable-background:new 0 0 792 490.3;" xml:space="preserve">
<style type="text/css">
	.st0{fill:#F6E5B7;}
	.st1{fill:#666766;}
	.st2{fill:#C1C1C0;}
	.st3{fill:#F79452;}
	.st4{fill:#F4F4F4;}
	.st5{fill:#ABABAB;}
	.st6{fill:#FCFCEE;}
	.st7{fill:#FFFFFF;}
</style>
<rect y="177.1" class="st0" width="792" height="17.3"/>
<rect y="194.5" class="st1" width="792" height="8.7"/>
<rect y="203.1" class="st2" width="792" height="65.7"/>
<rect x="320.8" y="170.2" class="st2" width="150.5" height="6.9"/>
<path class="st2" d="M512.6,8.3H279.4c-5,0-9.1,4.1-9.1,9.1v127.4c0,5,4.1,9.1,9.1,9.1h233.3c5,0,9.1-4.1,9.1-9.1V17.4
	C521.7,12.4,517.7,8.3,512.6,8.3z"/>
<path class="st3" d="M87.9,134.3v7.9c-7.4,0-13.4,6-13.4,13.4s6,13.4,13.4,13.4v8.2h31.7v-42.8H87.9z M87.9,163
	c-4.1,0-7.4-3.3-7.4-7.4c0-4.1,3.3-7.4,7.4-7.4V163z"/>
<path class="st4" d="M628.8,177.1h-38.6c0-1.2,0.3-2.4,0.8-3.5c2.3-5.2,9.8-8.9,18.5-8.9c8.8,0,16.2,3.8,18.5,8.9
	C628.5,174.8,628.8,175.9,628.8,177.1z"/>
<path class="st5" d="M628,173.7h-37.1c-0.5,1.1-0.8,2.3-0.8,3.5h38.6L628,173.7z"/>
<g>
	<path class="st1" d="M746.5,177.4h-43.6c0-1.4,0.3-2.7,0.9-3.9c2.6-5.8,11-10.1,21-10.1c9.9,0,18.3,4.2,20.9,10.1
		C746.2,174.7,746.5,176,746.5,177.4z"/>
	<path class="st1" d="M705,127.1c-0.1,0.1-0.2,0.3-0.3,0.4L677,95.7c0.2-0.1,0.4-0.2,0.6-0.3c8.5-3.8,18.9-1.8,25.4,5.8
		C709.5,108.7,710.1,119.3,705,127.1z"/>
	
		<rect x="738.9" y="102.9" transform="matrix(0.8758 0.4826 -0.4826 0.8758 158.7928 -340.6699)" class="st1" width="5.1" height="70.7"/>
	
		<rect x="735.1" y="73.8" transform="matrix(-0.5157 0.8568 -0.8568 -0.5157 1201.9595 -483.4323)" class="st1" width="5.1" height="48.4"/>
	
		<rect x="707.8" y="81.4" transform="matrix(0.7216 0.6924 -0.6924 0.7216 263.3641 -465.4654)" class="st1" width="5.1" height="26.6"/>
	<path class="st6" d="M704.7,127.6c-1,1.5-2.2,2.9-3.7,4.2l-28.5-33c1.4-1.2,2.9-2.2,4.5-3L704.7,127.6z"/>
</g>
<rect x="-1" y="177.8" class="st0" width="792" height="17.3"/>
<rect x="-1" y="195.2" class="st1" width="792" height="8.7"/>
<rect x="-1" y="203.8" class="st2" width="792" height="288.9"/>
<rect x="372" y="88" class="st4" width="47.9" height="85.7"/>
<path class="st7" d="M402.5,43.1l-3.6,3.6c0.2,0.6,0.2,1.2,0.2,1.6c-0.1,0.9-0.5,1.8-1.3,2.6c-0.8,0.8-1.6,1.2-2.4,1.4
	c-1.4,0.3-2.8-0.1-4.2-1.4l9.8-9.8c-1.1-1.2-2.1-2-2.8-2.5c-0.7-0.5-1.4-0.9-2.1-1.2l-2.6-4.8l-2.3,4.3c-0.4,0.1-0.8,0.2-1.1,0.3
	c-1.4,0.5-2.6,1.3-3.8,2.5c-1,1.1-1.8,2.2-2.3,3.4l-4.4,2.3l3.8,2.1c0.3,2.1,1.5,4.1,3.4,6.1c2.5,2.5,5,3.6,7.4,3.3
	c2.5-0.3,4.6-1.3,6.4-3.1c2.2-2.2,3.2-4.5,3.1-7C403.5,45.2,403.2,44,402.5,43.1z M387.7,45.5c0-1,0.4-2,1.3-2.9
	c0.8-0.8,1.8-1.3,2.8-1.3c1-0.1,2.1,0.3,3.1,1.2l-6,6C388.1,47.5,387.7,46.5,387.7,45.5z"/>
<g>
</g>
<g>
</g>
<g>
</g>
<g>
</g>
<g>
</g>
<g>
</g>
</svg>
