<?xml version="1.0" encoding="utf-8"?>
<!-- Generator: Adobe Illustrator 18.1.1, SVG Export Plug-In . SVG Version: 6.00 Build 0)  -->
<svg version="1.1" id="Layer_1" xmlns="http://www.w3.org/2000/svg" xmlns:xlink="http://www.w3.org/1999/xlink" x="0px" y="0px"
	 viewBox="0 359.1 792 270.9" enable-background="new 0 359.1 792 270.9" xml:space="preserve">
<path fill="#F68C1F" d="M540.5,531.6c0,0-9.8,5.5-11,12.9L544,548L540.5,531.6z"/>
<rect y="544" fill="#F6E5B7" width="792" height="17.3"/>
<rect y="561.4" fill="#666766" width="792" height="8.7"/>
<rect y="570" fill="#C1C1C0" width="792" height="65.7"/>
<rect x="320.8" y="537" fill="#ADADAD" width="150.5" height="6.9"/>
<path fill="#C1C1C0" d="M467.8,444.1H324.3c-3.1,0-5.6,2.6-5.6,5.9v82c0,3.2,2.5,5.9,5.6,5.9h143.6c3.1,0,5.6-2.6,5.6-5.9v-82
	C473.4,446.7,470.9,444.1,467.8,444.1z"/>
<path fill="#F68C1F" d="M87.9,501.2v7.9c-7.4,0-13.4,6-13.4,13.4c0,7.4,6,13.4,13.4,13.4v8.2h31.7v-42.8L87.9,501.2L87.9,501.2z
	 M87.9,529.9c-4.1,0-7.4-3.3-7.4-7.4s3.3-7.4,7.4-7.4V529.9z"/>
<path fill="#F4F4F4" d="M576.4,544.4h-33.9c0-1.1,0.3-2.1,0.7-3.1c2-4.6,8.6-7.8,16.2-7.8c7.7,0,14.2,3.3,16.2,7.8
	C576.2,542.4,576.4,543.4,576.4,544.4z"/>
<path fill="#ABABAB" d="M575.7,541.5h-32.6c-0.4,1-0.7,2-0.7,3.1h33.9L575.7,541.5z"/>
<g>
	<path fill="#666766" d="M746.5,544.2h-43.6c0-1.4,0.3-2.7,0.9-3.9c2.6-5.8,11-10.1,21-10.1c9.9,0,18.3,4.2,20.9,10.1
		C746.2,541.5,746.5,542.9,746.5,544.2z"/>
	<path fill="#666766" d="M705,494c-0.1,0.1-0.2,0.3-0.3,0.4L677,462.6c0.2-0.1,0.4-0.2,0.6-0.3c8.5-3.8,18.9-1.8,25.4,5.8
		C709.5,475.6,710.1,486.2,705,494z"/>
	
		<rect x="738.9" y="469.7" transform="matrix(-0.8758 -0.4826 0.4826 -0.8758 1147.0457 1305.2805)" fill="#666766" width="5.1" height="70.7"/>
	
		<rect x="735" y="440.7" transform="matrix(0.5157 -0.8568 0.8568 0.5157 -41.0903 857.1041)" fill="#666766" width="5.1" height="48.4"/>
	
		<rect x="707.8" y="448.3" transform="matrix(-0.7216 -0.6924 0.6924 -0.7216 903.3937 1286.4503)" fill="#666766" width="5.1" height="26.6"/>
	<path fill="#FCFCEE" d="M704.7,494.5c-1,1.5-2.2,2.9-3.7,4.2l-28.5-33c1.4-1.2,2.9-2.2,4.5-3L704.7,494.5z"/>
</g>
<rect x="-1" y="562.1" fill="#666766" width="792" height="8.7"/>
<rect x="-1" y="570.7" fill="#C1C1C0" width="792" height="59.3"/>
<path fill="#FFFFFF" d="M403.9,467.5l-2.6,2.6c0.1,0.4,0.1,0.9,0.1,1.2c-0.1,0.7-0.4,1.3-0.9,1.9c-0.6,0.6-1.2,0.9-1.7,1
	c-1,0.2-2-0.1-3.1-1l7.1-7.1c-0.8-0.9-1.5-1.5-2-1.8s-1-0.7-1.5-0.9l-1.9-3.5l-1.7,3.1c-0.3,0.1-0.6,0.1-0.8,0.2
	c-1,0.4-1.9,0.9-2.8,1.8c-0.7,0.8-1.3,1.6-1.7,2.5l-3.2,1.7l2.8,1.5c0.2,1.5,1.1,3,2.5,4.4c1.8,1.8,3.6,2.6,5.4,2.4
	c1.8-0.2,3.4-0.9,4.7-2.3c1.6-1.6,2.3-3.3,2.3-5.1C404.6,469,404.4,468.1,403.9,467.5z M393.1,469.2c0-0.7,0.3-1.5,0.9-2.1
	c0.6-0.6,1.3-0.9,2-0.9c0.7-0.1,1.5,0.2,2.3,0.9l-4.4,4.4C393.4,470.7,393.1,470,393.1,469.2z"/>
<ellipse fill="#F68C1F" cx="545" cy="543" rx="5" ry="4.2"/>
<rect x="-1" y="544" fill="#F6E5B7" width="792" height="17.3"/>
<path fill="#191817" d="M549.1,541.3c0,0,1.2,1.1,2.3,0c0,0-0.4,1.9-2.3,1.9C549.1,543.2,549.7,541.8,549.1,541.3z"/>
<path fill="#F68C1F" d="M545,538.8c0,0,4.3-3.7,11.9-1.9c0,0,2.5,1.6,5.4,2.1s4.2-1.2,2.7-4.1c-1.5-3-11.6-4.8-11.6-4.8L545,538.8z"
	/>
<path fill="#191817" d="M564.5,538.1c0,0,1.5-0.6,2.2,0.8c0,0,0.3-1.9-1.5-2.6C565.2,536.3,565.4,537.8,564.5,538.1z"/>
<path fill="#F68C1F" d="M539.9,531.8c0,0,8.9-5.6,21.8,1.3c11.6,6.2-9.4,3.7-9.4,3.7l-7.4,2.7l-1.4,2.6l-3.6-4.7L539.9,531.8z"/>
</svg>
