<?xml version="1.0" encoding="utf-8"?>
<!-- Generator: Adobe Illustrator 18.1.1, SVG Export Plug-In . SVG Version: 6.00 Build 0)  -->
<svg version="1.1" id="Layer_1" xmlns="http://www.w3.org/2000/svg" xmlns:xlink="http://www.w3.org/1999/xlink" x="0px" y="0px"
	 viewBox="0 0 612 792" style="enable-background:new 0 0 612 792;" xml:space="preserve">
<style type="text/css">
	.st0{fill:none;}
	.st1{fill:#666766;}
	.st2{fill:#C1C1C0;}
	.st3{fill:#ADADAD;}
	.st4{fill:#F68C1F;}
	.st5{fill:#F4F4F4;}
	.st6{fill:#ABABAB;}
	.st7{fill:#FCFCEE;}
	.st8{fill:#FFFFFF;}
	.st9{fill:#F6E5B7;}
</style>
<line class="st0" x1="588.4" y1="750.6" x2="23.5" y2="750.6"/>
<rect x="23.5" y="750.7" class="st1" width="564.9" height="6.7"/>
<rect x="28.6" y="757.4" class="st2" width="554.8" height="34.6"/>
<rect x="243.7" y="731.9" class="st3" width="116.3" height="5.3"/>
<path class="st2" d="M357.3,660.1H246.4c-2.4,0-4.3,2-4.3,4.6v63.4c0,2.5,1.9,4.6,4.3,4.6h111c2.4,0,4.3-2,4.3-4.6v-63.4
	C361.6,662.1,359.7,660.1,357.3,660.1z"/>
<path class="st4" d="M67.7,704.2v6.1c-5.7,0-10.4,4.6-10.4,10.4s4.6,10.4,10.4,10.4v6.3h24.5v-33.1L67.7,704.2L67.7,704.2z
	 M67.7,726.4c-3.2,0-5.7-2.5-5.7-5.7s2.6-5.7,5.7-5.7V726.4z"/>
<path class="st5" d="M419.2,737.6H393c0-0.8,0.2-1.6,0.5-2.4c1.5-3.6,6.6-6,12.5-6c6,0,11,2.5,12.5,6
	C419,736,419.2,736.8,419.2,737.6z"/>
<path class="st6" d="M418.7,735.3h-25.2c-0.3,0.8-0.5,1.5-0.5,2.4h26.2L418.7,735.3z"/>
<g>
	<path class="st1" d="M561.6,737.4h-33.7c0-1.1,0.2-2.1,0.7-3c2-4.5,8.5-7.8,16.2-7.8c7.6,0,14.1,3.2,16.1,7.8
		C561.4,735.3,561.6,736.4,561.6,737.4z"/>
	<path class="st1" d="M529.6,698.6c-0.1,0.1-0.2,0.2-0.2,0.3L508,674.3c0.2-0.1,0.3-0.2,0.5-0.2c6.6-2.9,14.6-1.4,19.6,4.5
		C533.1,684.4,533.5,692.6,529.6,698.6z"/>
	
		<rect x="555.9" y="679.9" transform="matrix(-0.8758 -0.4826 0.4826 -0.8758 705.0496 1595.7689)" class="st1" width="3.9" height="54.6"/>
	
		<rect x="552.8" y="657.4" transform="matrix(0.5157 -0.8568 0.8568 0.5157 -310.6154 802.7606)" class="st1" width="3.9" height="37.4"/>
	
		<rect x="531.9" y="663.3" transform="matrix(-0.7216 -0.6924 0.6924 -0.7216 452.6545 1529.1458)" class="st1" width="3.9" height="20.6"/>
	<path class="st7" d="M529.3,699c-0.8,1.2-1.7,2.2-2.9,3.2l-22-25.5c1.1-0.9,2.2-1.7,3.5-2.3L529.3,699z"/>
</g>
<rect x="22.8" y="751.2" class="st1" width="564.9" height="6.7"/>
<path class="st8" d="M307.9,678.1l-2,2c0.1,0.3,0.1,0.7,0.1,0.9c-0.1,0.5-0.3,1-0.7,1.5c-0.5,0.5-0.9,0.7-1.3,0.8
	c-0.8,0.2-1.5-0.1-2.4-0.8l5.5-5.5c-0.6-0.7-1.2-1.2-1.5-1.4c-0.4-0.2-0.8-0.5-1.2-0.7l-1.5-2.7l-1.3,2.4c-0.2,0.1-0.5,0.1-0.6,0.2
	c-0.8,0.3-1.5,0.7-2.2,1.4c-0.5,0.6-1,1.2-1.3,1.9l-2.5,1.3l2.2,1.2c0.2,1.2,0.9,2.3,1.9,3.4c1.4,1.4,2.8,2,4.2,1.9s2.6-0.7,3.6-1.8
	c1.2-1.2,1.8-2.5,1.8-3.9C308.5,679.3,308.3,678.6,307.9,678.1z M299.6,679.5c0-0.5,0.2-1.2,0.7-1.6c0.5-0.5,1-0.7,1.5-0.7
	c0.5-0.1,1.2,0.2,1.8,0.7l-3.4,3.4C299.8,680.6,299.6,680.1,299.6,679.5z"/>
<polygon class="st9" points="31.8,737.3 578.7,737.3 587.7,750.6 22.8,750.6 "/>
</svg>
