<?xml version="1.0" encoding="utf-8"?>
<!-- Generator: Adobe Illustrator 18.1.1, SVG Export Plug-In . SVG Version: 6.00 Build 0)  -->
<svg version="1.1" id="Layer_1" xmlns="http://www.w3.org/2000/svg" xmlns:xlink="http://www.w3.org/1999/xlink" x="0px" y="0px"
	 width="37.3px" height="35.1px" viewBox="0 0 37.3 35.1" style="enable-background:new 0 0 37.3 35.1;" xml:space="preserve">
<style type="text/css">
	.st0{fill:#FC8754;}
	.st1{fill:#FFFFFF;}
	.st2{fill:none;stroke:#FC8754;stroke-width:2.2895;stroke-miterlimit:10;}
</style>
<g>
	<g>
		<g id="XMLID_1_">
			<g>
				<path class="st0" d="M18.6,1.5c8.8,0,16,7.2,16,16c0,8.8-7.2,16-16,16c-8.8,0-16-7.2-16-16C2.7,8.6,9.9,1.6,18.6,1.5z
					 M33.2,17.4c0.1-0.1,0.2-0.2,0.2-0.3c0-0.6-0.1-1.3-0.2-2c-0.2,0.1-0.2,0.1-0.3,0.1c-0.1,0.1-0.3,0.2-0.4,0.3
					c-0.4,0.4-0.5,0.3-0.7-0.1c-0.2-0.4-0.4-0.7-0.8-0.8c0,0.1,0,0.1,0,0.1c-0.1,0.2,0.1,0.6-0.3,0.6c-0.2,0-0.3-0.3-0.5-0.5
					c-0.2-0.2-0.4-0.4-0.6-0.5c-0.4-0.2-0.6,0.1-0.9,0.2c-0.6,0.4-1.3,0.8-1.9,1.2c-0.3,0.2-0.6,0-0.8-0.2c-0.4-0.4,0-0.7,0.1-1.1
					c0-0.2,0.3-0.3,0.5-0.4c0.8-0.1,0.9-0.3,0.6-1c0,0,0-0.1,0-0.2c0.2-0.1,0.4-0.2,0.6-0.2c0.8,0.1,1.3-0.4,1.8-1
					c0.1-0.1,0.2-0.2,0.3-0.3c0.2-0.3,0.5-0.3,0.7-0.1c0.2,0.2,0.5,0.4,0.7,0.5c0.2,0.1,0.6,0,0.8-0.1c0.3-0.1,0.2-0.4,0-0.6
					c-0.6-1-1.2-2-1.9-2.9c-1.3-1.7-3.1-3-5-4c-0.4-0.2-0.6-0.1-0.6,0.3c0,0.2-0.2,0.4-0.3,0.6c-0.1,0.2-0.2,0.5-0.3,0.7
					c-0.1,0.5-0.3,0.8-0.8,1c-0.5,0.2-0.9,0.4-1.3,0.7c-0.1,0.1-0.2,0.1-0.4,0.2c-0.6,0.1-1,0.4-1.3,0.9c-0.4,0.8-0.7,0.8-1.4,0.3
					c-0.1-0.1-0.3-0.3-0.4-0.4c-0.5-0.8-0.5-1.3,0-1.7C18,6.3,17.9,6,17.7,5.6c-0.2-0.4-0.4-0.9-0.6-1.3c-0.3-0.5-0.7-0.8-1.3-0.6
					C15.4,3.8,15,3.8,15,3.2c-0.8,0.3-1.5,0.5-2.2,0.8c-0.5,0.2-1,0.5-0.8,1.2c-0.1,0-0.1,0-0.1,0c-0.1,0-0.2,0-0.2-0.1
					c-0.5-0.4-0.9-0.1-1.4,0.2c-0.1,0.1-0.2,0.3-0.1,0.3c0,0.1,0.2,0.2,0.3,0.2c0.2,0,0.3-0.1,0.5-0.1c0.4-0.1,0.8,0,1.1,0.3
					c-0.2,0.5-0.7,0.5-1.1,0.7C10.4,7,10,7.3,9.8,7.8C9.5,8.4,9.5,8.9,9.9,9.2c0.5,0.4,1,0.8,1.5,1.2c0.2,0.2,0.5,0.3,0.7,0.3
					c0.4,0.1,0.7-0.1,0.7-0.6c0-0.2-0.1-0.5-0.1-0.7c0-0.4,0-0.9,0.4-1.1c0.4-0.2,0.6,0.3,0.9,0.6c0.3,0.4,0.5,0.5,1,0.3
					c0.3-0.2,0.5-0.1,0.6,0.2c0.3,0.7,0.7,1.4,1.4,1.8c0.3,0.2,0.3,0.5,0,0.8c-0.3,0.2-0.7,0.3-1.1,0.2c-0.2-0.1-0.4-0.1-0.6-0.2
					c0,0,0,0.1-0.1,0.1c0.1,0.1,0.2,0.2,0.2,0.3c0,0.1,0,0.4-0.1,0.4c-0.7,0.1-1.1,0.5-1.5,1C13.7,14,13.5,14,13.4,14
					c-0.5,0.2-0.9,0.6-1.2,1.1c-0.3,0.6-0.7,1.1-0.6,1.7c0,0,0,0-0.1,0.1c-0.2-0.2-0.3-0.4-0.5-0.6c-0.2-0.2-0.4-0.4-0.6-0.4
					c-0.5,0-1.1,0.1-1.6,0.2c-0.2,0-0.4,0.3-0.4,0.5c0,0.4,0.2,0.8,0.6,1c0.4,0.2,0.7,0.5,1.1,0.8c0.4,0.4,0.7,0.8,1.1,1.2
					c0.1,0.1,0.3,0.2,0.5,0.2C12,20,12.4,20,12.7,20c1.4-0.1,2.6,0.4,3.6,1.4c0.3,0.3,0.5,0.6,0.7,1c0.1,0.1,0.2,0.3,0.4,0.3
					c0.7,0.2,1.4,0.5,2.2,0.7c0.3,0.1,0.5,0.2,0.4,0.5c-0.3,1.1-0.8,2.1-1.6,3c-0.6,0.6-1.4,1.1-2,1.6c-0.2,0.2-0.4,0.5-0.5,0.8
					c-0.1,0.1-0.2,0.3-0.3,0.4c-0.5,0.4-1.1,0.8-1.7,1.2c-0.1,0.1-0.2,0.2-0.3,0.4c0.2,0.1,0.4,0.2,0.6,0.2c1.9,0.6,3.9,0.9,5.9,0.7
					c3.4-0.3,6.3-1.7,8.8-4c0.3-0.3,0.4-0.6,0.3-1c0-0.5,0-1,0-1.4c0-0.4-0.1-0.7-0.1-1.1c-0.1-0.4-0.2-0.8-0.2-1.3c0-0.8-0.2-1-1-1
					c-0.4,0-0.8,0.1-1.2,0c-1.4-0.1-2-1.1-2.5-2.3c-0.1-0.4-0.1-0.7,0.1-1c0.3-0.6,0.6-1.2,1.2-1.6c0.2-0.1,0.4-0.4,0.5-0.6
					c0.1-0.3,0.3-0.5,0.7-0.5c0.6-0.1,1.3-0.2,1.9-0.3c0.7-0.2,1.1,0,1.6,0.5c1.5,1.6,1,1.4,3,0.9C33,17.5,33.1,17.5,33.2,17.4z
					 M12.6,26.9c0.1-0.6,0.1-1-0.4-1.4c-0.7-0.5-1-1.1-1.2-1.9c-0.2-0.7-0.3-1.3,0.3-1.9c0.4-0.5,0.4-0.7-0.1-1.1
					c-0.4-0.3-0.8-0.6-1.1-0.9c-0.7-0.5-1.4-1-2.3-1.2c-0.3,0-0.5-0.3-0.7-0.6c-0.4-0.7-0.8-1.5-1.2-2.2c-0.1-0.2-0.3-0.4-0.5-0.6
					c-0.1,0-0.1,0.1-0.2,0.1c0.2,0.6,0.5,1.2,0.7,1.8c-0.5-0.2-1.1-0.9-1.7-1.9C2.8,22,7.1,28.2,11.5,30.3c0-0.2,0.1-0.3,0.1-0.4
					c0.2-0.6,0.2-1.3,0.5-1.8C12.4,27.7,12.5,27.3,12.6,26.9z"/>
				<path class="st1" d="M33.4,17.2c0,0.1-0.1,0.2-0.2,0.3c-0.1,0-0.1,0.1-0.2,0.1c-2,0.5-1.4,0.7-3-0.9c-0.5-0.5-0.9-0.7-1.6-0.5
					c-0.6,0.2-1.3,0.2-1.9,0.3c-0.3,0-0.5,0.2-0.7,0.5c-0.1,0.2-0.2,0.5-0.5,0.6c-0.7,0.4-0.9,1-1.2,1.6c-0.2,0.3-0.2,0.7-0.1,1
					c0.4,1.2,1.1,2.2,2.5,2.3c0.4,0,0.8,0,1.2,0c0.9,0,1,0.2,1,1c0,0.4,0.2,0.8,0.2,1.3c0.1,0.4,0.1,0.7,0.1,1.1c0,0.5,0,1,0,1.4
					c0,0.4,0,0.7-0.3,1c-2.5,2.3-5.4,3.7-8.8,4c-2,0.2-4,0-5.9-0.7c-0.2-0.1-0.3-0.1-0.6-0.2c0.1-0.2,0.2-0.3,0.3-0.4
					c0.5-0.4,1.1-0.8,1.7-1.2c0.1-0.1,0.2-0.3,0.3-0.4c0.2-0.3,0.3-0.6,0.5-0.8c0.7-0.6,1.4-1,2-1.6c0.8-0.8,1.3-1.8,1.6-3
					c0.1-0.3-0.1-0.5-0.4-0.5c-0.7-0.2-1.5-0.4-2.2-0.7c-0.2-0.1-0.3-0.2-0.4-0.3c-0.2-0.3-0.4-0.7-0.7-1c-1-1-2.2-1.5-3.6-1.4
					c-0.4,0-0.7,0-1.1-0.1c-0.2,0-0.4-0.1-0.5-0.2c-0.4-0.4-0.7-0.8-1.1-1.2c-0.3-0.3-0.7-0.6-1.1-0.8c-0.4-0.2-0.6-0.6-0.6-1
					c0-0.2,0.2-0.4,0.4-0.5c0.5-0.1,1-0.2,1.6-0.2c0.2,0,0.4,0.2,0.6,0.4c0.2,0.2,0.3,0.4,0.5,0.6c0.1-0.1,0.1-0.1,0.1-0.1
					c-0.1-0.7,0.3-1.2,0.6-1.7c0.3-0.5,0.7-0.9,1.2-1.1c0.1-0.1,0.3-0.1,0.3-0.1c0.4-0.5,0.8-0.9,1.5-1c0,0,0.1-0.3,0.1-0.4
					c0-0.1-0.1-0.2-0.2-0.3c0,0,0-0.1,0.1-0.1c0.2,0.1,0.4,0.1,0.6,0.2c0.4,0.2,0.8,0.1,1.1-0.2c0.3-0.3,0.4-0.5,0-0.8
					c-0.7-0.4-1.1-1.1-1.4-1.8c-0.1-0.3-0.3-0.4-0.6-0.2c-0.4,0.3-0.7,0.2-1-0.3c-0.2-0.3-0.4-0.8-0.9-0.6c-0.4,0.2-0.5,0.7-0.4,1.1
					c0,0.2,0.1,0.5,0.1,0.7c0,0.5-0.2,0.7-0.7,0.6c-0.2-0.1-0.5-0.2-0.7-0.3c-0.5-0.4-1-0.8-1.5-1.2C9.5,8.9,9.5,8.4,9.8,7.8
					C10,7.3,10.4,7,11,6.8c0.4-0.1,0.8-0.2,1.1-0.7c-0.3-0.3-0.7-0.4-1.1-0.3c-0.2,0-0.3,0.1-0.5,0.1c-0.1,0-0.3-0.1-0.3-0.2
					c0-0.1,0-0.3,0.1-0.3c0.4-0.3,0.8-0.7,1.4-0.2c0.1,0,0.1,0.1,0.2,0.1c0,0,0.1,0,0.1,0c-0.2-0.7,0.3-1,0.8-1.2
					c0.7-0.3,1.5-0.5,2.2-0.8c0,0.6,0.4,0.6,0.7,0.5c0.6-0.2,1.1,0,1.3,0.6c0.2,0.4,0.4,0.9,0.6,1.3C17.9,6,18,6.3,18.2,6.7
					c-0.5,0.4-0.5,0.9,0,1.7c0.1,0.2,0.2,0.3,0.4,0.4c0.7,0.6,1,0.5,1.4-0.3c0.3-0.5,0.7-0.8,1.3-0.9c0.1,0,0.3-0.1,0.4-0.2
					c0.4-0.2,0.9-0.5,1.3-0.7c0.5-0.2,0.7-0.5,0.8-1c0.1-0.2,0.2-0.5,0.3-0.7c0.1-0.2,0.2-0.4,0.3-0.6c0.1-0.4,0.3-0.5,0.6-0.3
					c2,1,3.7,2.3,5,4c0.7,0.9,1.3,2,1.9,2.9c0.1,0.2,0.3,0.5,0,0.6c-0.2,0.1-0.6,0.2-0.8,0.1c-0.3-0.1-0.5-0.3-0.7-0.5
					c-0.3-0.2-0.5-0.2-0.7,0.1c-0.1,0.1-0.2,0.2-0.3,0.3c-0.4,0.6-1,1-1.8,1c-0.2,0-0.4,0.1-0.6,0.2c0,0.1,0,0.1,0,0.2
					c0.3,0.7,0.2,0.9-0.6,1c-0.2,0-0.4,0.2-0.5,0.4c-0.1,0.3-0.4,0.7-0.1,1.1c0.2,0.2,0.5,0.4,0.8,0.2c0.6-0.4,1.3-0.8,1.9-1.2
					c0.3-0.2,0.6-0.4,0.9-0.2c0.2,0.1,0.4,0.4,0.6,0.5c0.2,0.2,0.3,0.5,0.5,0.5c0.4,0,0.2-0.4,0.3-0.6c0,0,0-0.1,0-0.1
					c0.4,0.1,0.6,0.4,0.8,0.8c0.2,0.5,0.3,0.5,0.7,0.1c0.1-0.1,0.2-0.2,0.4-0.3c0,0,0.1,0,0.3-0.1C33.3,15.9,33.3,16.5,33.4,17.2z
					 M27.7,12.5c0.4-0.2,0.7-0.4,0.9-0.9c-0.3-0.2-0.7-0.2-0.8-0.6c0-0.3,0-0.7-0.5-0.6c-0.3,0.1-0.4,0.3-0.2,0.8
					c0,0.1,0.1,0.1,0.1,0.2c0.1,0.3,0.1,0.5,0.1,0.8C27.3,12.5,27.5,12.6,27.7,12.5z M16.2,7.2c0-0.1,0-0.1,0-0.2
					c-0.2-0.1-0.4-0.2-0.5-0.3c-0.2-0.1-0.5-0.3-0.5-0.4c-0.1-0.4-0.3-0.6-0.7-0.7c-0.3-0.1-0.6-0.2-1-0.4c0.1,0.3,0.1,0.5,0.1,0.7
					c0,0.1,0.1,0.3,0,0.4c-0.2,0.4-0.5,0.7-0.8,1.1c0,0.1,0,0.1,0,0.2C13.6,7.4,14,8,14.5,8.4c0.1,0.1,0.4,0.1,0.5,0
					c0.3-0.2,0.5-0.5,0.2-0.9c-0.1-0.1,0-0.2-0.1-0.3C15.5,7.2,15.8,7.2,16.2,7.2z"/>
				<path class="st0" d="M28.6,11.6c-0.1,0.5-0.5,0.7-0.9,0.9c-0.2,0.1-0.4,0-0.4-0.3c0-0.3-0.1-0.5-0.1-0.8c0-0.1-0.1-0.1-0.1-0.2
					c-0.2-0.5-0.1-0.8,0.2-0.8c0.5-0.1,0.5,0.3,0.5,0.6C27.8,11.4,28.2,11.4,28.6,11.6z"/>
				<path class="st0" d="M16.2,7c0,0.1,0,0.1,0,0.2c-0.3,0-0.7,0.1-1,0.1c0,0.1,0,0.2,0.1,0.3c0.3,0.4,0.1,0.7-0.2,0.9
					c-0.1,0.1-0.5,0.1-0.5,0c-0.5-0.5-0.9-1-1.7-0.9c0-0.1,0-0.1,0-0.2c0.3-0.4,0.5-0.7,0.8-1.1c0.1-0.1,0-0.2,0-0.4
					c0-0.2-0.1-0.4-0.1-0.7c0.4,0.2,0.7,0.3,1,0.4c0.3,0.1,0.6,0.3,0.7,0.7c0,0.2,0.3,0.3,0.5,0.4C15.8,6.8,16,6.9,16.2,7z"/>
				<path class="st1" d="M12.2,25.5c0.5,0.3,0.6,0.8,0.4,1.4c-0.1,0.4-0.2,0.8-0.5,1.2c-0.3,0.5-0.4,1.2-0.5,1.8
					c0,0.1-0.1,0.3-0.1,0.4C7.1,28.2,2.8,22,4.1,15.1c0.6,1,1.2,1.7,1.7,1.9c-0.3-0.7-0.5-1.2-0.7-1.8c0.1,0,0.1-0.1,0.2-0.1
					c0.2,0.2,0.3,0.4,0.5,0.6C6.2,16.5,6.6,17.2,7,18c0.1,0.2,0.4,0.5,0.7,0.6c0.9,0.2,1.6,0.7,2.3,1.2c0.4,0.3,0.8,0.6,1.1,0.9
					c0.5,0.4,0.6,0.6,0.1,1.1c-0.6,0.6-0.5,1.2-0.3,1.9C11.2,24.4,11.5,25,12.2,25.5z"/>
			</g>
			<g>
			</g>
		</g>
	</g>
	<circle class="st2" cx="18.6" cy="17.5" r="15.7"/>
</g>
<g>
</g>
<g>
</g>
<g>
</g>
<g>
</g>
<g>
</g>
<g>
</g>
</svg>
