<?xml version="1.0" encoding="utf-8"?>
<!-- Generator: Adobe Illustrator 18.1.1, SVG Export Plug-In . SVG Version: 6.00 Build 0)  -->
<svg version="1.1" id="Layer_1" xmlns="http://www.w3.org/2000/svg" xmlns:xlink="http://www.w3.org/1999/xlink" x="0px" y="0px"
	 viewBox="0 0 276 53" style="enable-background:new 0 0 276 53;" xml:space="preserve">
<style type="text/css">
	.st0{fill:#FC5E9E;}
</style>
<g>
	<polygon class="st0" points="27.2,6.6 32.3,22 48.5,22 35.4,31.3 40.4,46.6 27.2,37 14.1,46.5 19.1,31.3 6,22 22.2,22 	"/>
	<polygon class="st0" points="82.6,6.6 87.6,22 103.9,22 90.7,31.3 95.8,46.6 82.6,37 69.5,46.5 74.5,31.3 61.4,22 77.6,22 	"/>
	<polygon class="st0" points="138,6.6 143,22 159.2,22 146.1,31.3 151.1,46.6 138,37 124.9,46.5 129.9,31.3 116.8,22 133,22 	"/>
	<polygon class="st0" points="193.4,6.6 198.4,22 214.6,22 201.5,31.3 206.5,46.6 193.4,37 180.2,46.5 185.3,31.3 172.1,22 
		188.4,22 	"/>
	<polygon class="st0" points="248.8,6.6 253.8,22 270,22 256.9,31.3 261.9,46.6 248.8,37 235.6,46.5 240.6,31.3 227.5,22 243.7,22 	
		"/>
</g>
</svg>
