<?xml version="1.0" encoding="utf-8"?>
<!-- Generator: Adobe Illustrator 18.1.1, SVG Export Plug-In . SVG Version: 6.00 Build 0)  -->
<svg version="1.1" id="Layer_1" xmlns="http://www.w3.org/2000/svg" xmlns:xlink="http://www.w3.org/1999/xlink" x="0px" y="0px"
	 viewBox="0 0 234 217" style="enable-background:new 0 0 234 217;" xml:space="preserve">
<style type="text/css">
	.st0{fill:#FC5E9E;}
	.st1{fill:#21150A;}
</style>
<circle class="st0" cx="117" cy="108.5" r="93.7"/>
<circle class="st1" cx="117" cy="108.5" r="82"/>
<g>
	<path class="st0" d="M77.8,145V70.8h15V145H77.8z"/>
	<path class="st0" d="M156.2,145H143v-7.9c-2.2,3.1-4.8,5.4-7.8,6.9c-3,1.5-6,2.3-9,2.3c-6.2,0-11.5-2.5-15.9-7.5
		c-4.4-5-6.6-11.9-6.6-20.8c0-9.1,2.1-16,6.4-20.8c4.3-4.7,9.7-7.1,16.2-7.1c6,0,11.2,2.5,15.6,7.5V70.8h14.2V145z M118.3,116.9
		c0,5.7,0.8,9.9,2.4,12.4c2.3,3.7,5.5,5.6,9.6,5.6c3.3,0,6.1-1.4,8.3-4.2c2.3-2.8,3.4-6.9,3.4-12.5c0-6.2-1.1-10.6-3.3-13.3
		c-2.2-2.7-5.1-4.1-8.5-4.1c-3.4,0-6.2,1.3-8.5,4C119.4,107.6,118.3,111.6,118.3,116.9z"/>
</g>
</svg>
