<?xml version="1.0" encoding="utf-8"?>
<!-- Generator: Adobe Illustrator 18.1.1, SVG Export Plug-In . SVG Version: 6.00 Build 0)  -->
<svg version="1.1" id="Layer_1" xmlns="http://www.w3.org/2000/svg" xmlns:xlink="http://www.w3.org/1999/xlink" x="0px" y="0px"
	 viewBox="0 0 1070 1070" style="enable-background:new 0 0 1070 1070;" xml:space="preserve">
<style type="text/css">
	.st0{fill:#232222;}
	.st1{fill:#22D3C5;}
</style>
<g>
	<g>
		<path class="st0" d="M323.5,204.5H195.8l-64.6-62.9v177.8h256.9V141.7L323.5,204.5z M209.5,254.1c-3.4-0.6-6.1-3.4-6.6-6.8
			c-0.8-5.3,3.2-9.8,8.3-9.8c4.6,0,8.4,3.7,8.4,8.4C219.6,251,214.9,255.1,209.5,254.1z M259.9,285.8l-18.8-18.8l37.1,0.5
			L259.9,285.8z M300.8,254.1c-5.9,1.1-11-4-9.9-9.9c0.6-3.3,3.3-6,6.6-6.6c5.9-1.1,11,3.9,9.9,9.9
			C306.8,250.8,304.1,253.5,300.8,254.1z"/>
	</g>
	<path class="st1" d="M131.2,333.7v114.9h56.7c3.3-3.3,2.9-8,2.9-8.1c0-0.1,0-0.2,0-0.3v-66.9c0-1.8,1.5-3.3,3.3-3.3
		s3.3,1.5,3.3,3.3v66.8c0.2,2.1-0.2,5.3-1.6,8.5h192.2v-53.9v-61.1H131.2z M232.7,365.5c-4.6,0-8.4-3.7-8.4-8.4
		c0-4.6,3.8-8.4,8.4-8.4c4.6,0,8.4,3.7,8.4,8.4C241.1,361.7,237.4,365.5,232.7,365.5z M382.5,400.6l-67.4-32.3v-28.7h67.4V400.6z"/>
	<path d="M415.7,217.7h49.6V237h-28.7v19.6h28.7v19.3h-28.7v24.5h28.7v19.3h-49.6V217.7z"/>
	<path d="M496.5,319.7h-21.2l27.9-102h19.3l29,102h-21.2l-5.2-19.4h-23.4L496.5,319.7z M513,247.6l-6.5,33.4h13L513,247.6z"/>
	<path d="M577.3,287.6c0.3,10.6,3.9,15.6,13,15.6c7.7,0,11.9-4.8,11.9-12.1c0-9.2-11-11.4-22.1-15.7c-11-4.4-22.1-10.8-22.1-28
		c0-19.3,11.9-31.7,31.3-31.7c18.9,0,29.4,9.1,32.4,29.2h-20.4c-0.3-7.4-4.4-11.9-11.2-11.9c-6.6,0-10.6,5-10.6,11.2
		c0,9.7,11,11.4,22.1,15.9c11,4.4,22.1,11.3,22.1,30.7c0,19.2-14.3,30.9-33.8,30.9c-23.3,0-33.5-12.5-33.5-34.1H577.3z"/>
	<path d="M648.4,237h-17.1v-19.3h55.2V237h-17.1v82.7h-21V237z"/>
	<path d="M690,217.7h21.2l13.2,65.4l13.5-65.4h18.5l13.5,65.4l12.7-65.4h21l-24,102h-18.5l-14.3-68.9l-13.8,68.9h-18.5L690,217.7z"
		/>
	<path d="M821,319.7h-21.2l27.9-102h19.3l29,102h-21.2l-5.2-19.4H826L821,319.7z M837.6,247.6l-6.5,33.4h13L837.6,247.6z"/>
	<path d="M893.3,278.9l-24.5-61.2h21.5l13.6,41.6l13.4-41.6h21.5l-24.5,61.2v40.8h-21V278.9z"/>
	<g>
		<path class="st1" d="M414.7,334.4H425v36.3l21.8-36.3h11.4L434.7,372l25.3,38.9h-12L425,374.5v36.4h-10.2V334.4z"/>
		<path class="st1" d="M492.7,334.4H529v9.4h-26.1v23H529v9.4h-26.1v25.3H529v9.4h-36.3V334.4z"/>
		<path class="st1" d="M607.8,392.3v-57.9h9.2v76.5h-10.3l-28.4-60.2v60.2H569v-76.5h11.4L607.8,392.3z"/>
		<path class="st1" d="M696.5,392.3v-57.9h9.2v76.5h-10.3l-28.4-60.2v60.2h-9.2v-76.5h11.4L696.5,392.3z"/>
		<path class="st1" d="M746.6,334.4h36.3v9.4h-26.1v23h26.1v9.4h-26.1v25.3h26.1v9.4h-36.3V334.4z"/>
		<path class="st1" d="M823.1,334.4h10.2v67.1h23.1v9.4h-33.3V334.4z"/>
		<path class="st1" d="M898.8,388.9c0.7,10.6,6.4,14.4,12.5,14.4c7.4,0,12.7-5,12.7-13c0-9.9-9.1-12.2-16.9-14.9
			c-7.1-2.6-17.3-6.7-17.3-20.3c-0.1-13.6,8.5-22.1,21.2-22.1c12.3,0,19.9,6.2,21.7,20.2h-9.9c-0.5-5.6-3.4-11.6-11.4-11.6
			c-6.9,0-11.1,5.1-11.1,11.9c-0.1,9.2,7.8,11.3,17.1,14.5c6.7,2.5,17,6.9,17,21.9c0,13.9-10,22.5-23.2,22.5
			c-13.6,0-22.3-8.1-22.6-23.5H898.8z"/>
	</g>
</g>
<g>
	<g>
		<path class="st0" d="M599.7,577.4H470.3l-65.4-63.7v180.1h260.1V513.7L599.7,577.4z M484.2,627.5c-3.4-0.7-6.2-3.5-6.7-6.9
			c-0.9-5.4,3.2-9.9,8.4-9.9c4.7,0,8.5,3.8,8.5,8.5C494.4,624.5,489.6,628.6,484.2,627.5z M535.2,659.7l-19-19l37.5,0.5L535.2,659.7
			z M576.7,627.6c-6,1.1-11.1-4-10-10c0.6-3.3,3.4-6,6.7-6.7c6-1.1,11.1,4,10,10C582.7,624.2,580,626.9,576.7,627.6z"/>
	</g>
	<path class="st1" d="M404.9,704.4v116.4h57.4c3.3-3.3,3-8.1,3-8.2c0-0.1,0-0.2,0-0.3v-67.8c0-1.9,1.5-3.4,3.4-3.4
		c1.9,0,3.4,1.5,3.4,3.4v67.6c0.2,2.2-0.2,5.4-1.6,8.6h194.7v-54.6v-61.8H404.9z M507.7,736.5c-4.7,0-8.5-3.8-8.5-8.5
		c0-4.7,3.8-8.5,8.5-8.5c4.7,0,8.5,3.8,8.5,8.5C516.2,732.7,512.4,736.5,507.7,736.5z M659.4,772.1l-68.2-32.7v-29.1h68.2V772.1z"/>
	<g>
		<path d="M406.8,830.3h24.7v9.6h-14.3v9.7h14.3v9.6h-14.3v12.2h14.3v9.6h-24.7V830.3z"/>
		<path d="M447,881.1h-10.6l13.9-50.8h9.6l14.4,50.8h-10.6l-2.6-9.7h-11.7L447,881.1z M455.2,845.2l-3.2,16.6h6.4L455.2,845.2z"/>
		<path d="M487.2,865.1c0.1,5.3,1.9,7.8,6.4,7.8c3.8,0,5.9-2.4,5.9-6c0-4.6-5.5-5.7-11-7.8c-5.5-2.2-11-5.4-11-13.9
			c0-9.6,5.9-15.8,15.6-15.8c9.4,0,14.6,4.5,16.1,14.5h-10.2c-0.1-3.7-2.2-5.9-5.6-5.9c-3.3,0-5.3,2.5-5.3,5.6c0,4.8,5.5,5.7,11,7.9
			c5.5,2.2,11,5.6,11,15.3c0,9.5-7.1,15.4-16.8,15.4c-11.6,0-16.7-6.2-16.7-16.9H487.2z"/>
		<path d="M522.6,839.9h-8.5v-9.6h27.4v9.6H533v41.2h-10.4V839.9z"/>
		<path d="M543.3,830.3h10.6l6.6,32.5l6.7-32.5h9.2l6.7,32.5l6.3-32.5h10.4l-11.9,50.8h-9.2l-7.1-34.3l-6.9,34.3h-9.2L543.3,830.3z"
			/>
		<path d="M608.5,881.1h-10.6l13.9-50.8h9.6l14.4,50.8h-10.6l-2.6-9.7H611L608.5,881.1z M616.7,845.2l-3.2,16.6h6.4L616.7,845.2z"/>
		<path d="M644.4,860.8l-12.2-30.5h10.7l6.8,20.7l6.7-20.7h10.7l-12.2,30.5v20.3h-10.4V860.8z"/>
	</g>
	<g>
		<path class="st1" d="M406.3,890.3h5.1v18.1l10.9-18.1h5.7L416.3,909l12.6,19.3h-6l-11.5-18.1v18.1h-5.1V890.3z"/>
		<path class="st1" d="M445.1,890.3h18.1v4.7h-13v11.4h13v4.7h-13v12.6h13v4.7h-18.1V890.3z"/>
		<path class="st1" d="M502.4,919.1v-28.8h4.6v38.1h-5.1l-14.1-29.9v29.9h-4.6v-38.1h5.7L502.4,919.1z"/>
		<path class="st1" d="M546.5,919.1v-28.8h4.6v38.1H546l-14.1-29.9v29.9h-4.6v-38.1h5.7L546.5,919.1z"/>
		<path class="st1" d="M571.5,890.3h18.1v4.7h-13v11.4h13v4.7h-13v12.6h13v4.7h-18.1V890.3z"/>
		<path class="st1" d="M609.5,890.3h5.1v33.4h11.5v4.7h-16.6V890.3z"/>
		<path class="st1" d="M647.2,917.4c0.4,5.3,3.2,7.2,6.2,7.2c3.7,0,6.3-2.5,6.3-6.5c0-4.9-4.5-6.1-8.4-7.4
			c-3.5-1.3-8.6-3.3-8.6-10.1c-0.1-6.8,4.2-11,10.5-11c6.1,0,9.9,3.1,10.8,10h-4.9c-0.3-2.8-1.7-5.8-5.7-5.8c-3.4,0-5.5,2.5-5.5,5.9
			c-0.1,4.6,3.9,5.6,8.5,7.2c3.3,1.2,8.4,3.4,8.4,10.9c0,6.9-5,11.2-11.5,11.2c-6.8,0-11.1-4-11.3-11.7H647.2z"/>
	</g>
</g>
<g>
	<path d="M1065,5v1060H5V5H1065 M1070,0H0v1070h1070V0L1070,0z"/>
</g>
</svg>
