<?xml version="1.0" encoding="utf-8"?>
<!-- Generator: Adobe Illustrator 18.1.1, SVG Export Plug-In . SVG Version: 6.00 Build 0)  -->
<svg version="1.1" id="Layer_1" xmlns="http://www.w3.org/2000/svg" xmlns:xlink="http://www.w3.org/1999/xlink" x="0px" y="0px"
	 viewBox="0 0 434 156.9" style="enable-background:new 0 0 434 156.9;" xml:space="preserve">
<style type="text/css">
	.st0{fill:#F99D42;}
	.st1{fill:none;}
	.st2{fill:#010101;}
</style>
<polygon class="st0" points="68.7,16.2 59.2,34.1 78.6,34.2 "/>
<polygon class="st0" points="22.2,59 39.8,68.9 40.3,49.5 "/>
<path class="st0" d="M57.2,31.6c4.5-1.7,9.3-2.1,14.4-1.1c4.5,0.8,8.8,2.7,12.8,5.7c2.4,1.7,5.5,4.6,9.3,8.5L61.1,77.4
	c4.7,4.3,9.4,5.9,14.2,4.8c2.9-0.7,5.6-2.3,8.2-4.8c2.7-2.7,4.2-5.5,4.5-8.6c0.2-1.7-0.1-3.5-0.7-5.5l12-12c2.3,3,3.6,7.1,3.8,12.5
	c0.3,8.4-3.1,16.2-10.3,23.4c-6,6-13.1,9.4-21.3,10.3c-8.2,0.9-16.5-2.8-24.8-11.1c-7.8-7.8-11.7-15.8-11.7-24
	c0-8.3,3.2-15.7,9.8-22.3C48.5,36.2,52.7,33.4,57.2,31.6z M49.8,59.3c0.1,3.4,1.3,6.7,3.8,10.1l20.2-20.2c-3.3-2.9-6.7-4.2-10.2-4
	c-3.5,0.3-6.6,1.8-9.4,4.5C51.3,52.8,49.8,55.9,49.8,59.3z"/>
<path class="st0" d="M143.5,30.4c0.2,0,0.7,0,1.4,0.1v17c-1-0.1-2-0.2-2.8-0.2c-0.8,0-1.5-0.1-2-0.1c-6.7,0-11.2,2.2-13.4,6.5
	c-1.3,2.4-1.9,6.2-1.9,11.3v30.3h-16.7V31.9h15.8v11.1c2.6-4.2,4.8-7.1,6.7-8.7c3.1-2.6,7.1-3.9,12.1-3.9
	C143,30.4,143.2,30.4,143.5,30.4z"/>
<path class="st0" d="M205.7,35.5c4.2,3.4,6.2,9.1,6.2,17.1v42.7h-17V56.7c0-3.3-0.4-5.9-1.3-7.7c-1.6-3.3-4.7-4.9-9.2-4.9
	c-5.6,0-9.4,2.4-11.5,7.2c-1.1,2.5-1.6,5.7-1.6,9.7v34.3h-16.6V32h16.1v9.3c2.1-3.3,4.1-5.6,6-7c3.4-2.6,7.7-3.8,12.9-3.8
	C196.3,30.4,201.6,32.1,205.7,35.5z"/>
<path class="st0" d="M265.3,54.6c-0.3-2.4-1.1-4.5-2.4-6.4c-1.9-2.6-4.8-3.8-8.7-3.8c-5.6,0-9.4,2.8-11.5,8.3
	c-1.1,2.9-1.6,6.8-1.6,11.7c0,4.6,0.5,8.4,1.6,11.2c2,5.3,5.7,7.9,11.2,7.9c3.9,0,6.6-1,8.3-3.1c1.6-2.1,2.6-4.8,3-8.1h16.9
	c-0.4,5-2.2,9.8-5.5,14.3c-5.2,7.3-12.9,10.9-23.1,10.9c-10.2,0-17.7-3-22.5-9.1c-4.8-6.1-7.2-13.9-7.2-23.5c0-10.9,2.7-19.3,8-25.4
	c5.3-6.1,12.7-9.1,22-9.1c8,0,14.5,1.8,19.5,5.4c5.1,3.6,8.1,9.9,9,18.9H265.3z"/>
<path class="st0" d="M318.8,56.7c3.1-0.4,5.3-0.9,6.6-1.5c2.4-1,3.6-2.6,3.6-4.7c0-2.6-0.9-4.4-2.7-5.4c-1.8-1-4.5-1.5-8.1-1.5
	c-4,0-6.8,1-8.4,2.9c-1.2,1.4-2,3.4-2.4,5.8h-16c0.4-5.5,1.9-10.1,4.7-13.7c4.4-5.6,12-8.4,22.7-8.4c7,0,13.2,1.4,18.6,4.1
	c5.4,2.8,8.1,8,8.1,15.6v29.1c0,2,0,4.5,0.1,7.3c0.1,2.2,0.4,3.6,1,4.4c0.5,0.8,1.4,1.4,2.4,1.9v2.4h-18c-0.5-1.3-0.9-2.5-1-3.6
	c-0.2-1.1-0.3-2.4-0.5-3.8c-2.3,2.5-5,4.6-8,6.3c-3.6,2.1-7.6,3.1-12.2,3.1c-5.8,0-10.5-1.6-14.3-4.9c-3.8-3.3-5.6-7.9-5.6-13.9
	c0-7.8,3-13.4,9.1-16.9c3.3-1.9,8.2-3.3,14.7-4.1L318.8,56.7z M328.9,64.5c-1.1,0.7-2.1,1.2-3.2,1.6c-1.1,0.4-2.6,0.8-4.5,1.1
	l-3.8,0.7c-3.5,0.6-6.1,1.4-7.6,2.3c-2.6,1.5-3.9,3.9-3.9,7c0,2.8,0.8,4.9,2.4,6.1c1.6,1.3,3.5,1.9,5.8,1.9c3.6,0,7-1,10-3.1
	c3.1-2.1,4.6-5.9,4.8-11.5V64.5z"/>
<path class="st0" d="M353.4,44.3V32.5h8.8V14.8h16.4v17.7H389v11.8h-10.3v33.5c0,2.6,0.3,4.2,1,4.9c0.7,0.6,2.7,1,6.1,1
	c0.5,0,1,0,1.6,0c0.6,0,1.1,0,1.7-0.1v12.4l-7.9,0.3c-7.8,0.3-13.2-1.1-16.1-4.1c-1.9-1.9-2.8-4.8-2.8-8.8v-39H353.4z"/>
<g>
	<rect x="36.8" y="109.9" class="st1" width="397.2" height="40.1"/>
	<path class="st2" d="M40.3,141.4v-31.5h10.7c0.9,0,1.7,0,2.6,0.1c0.8,0,1.7,0.1,2.5,0.3c0.8,0.2,1.6,0.4,2.4,0.7
		c0.8,0.3,1.5,0.7,2.3,1.3c1,0.8,1.9,1.7,2.6,2.8c0.7,1.1,1.2,2.2,1.6,3.5c0.4,1.2,0.7,2.4,0.8,3.7c0.2,1.2,0.2,2.4,0.2,3.4
		c0,1-0.1,2.1-0.2,3.2c-0.1,1.1-0.3,2.1-0.6,3.2c-0.3,1-0.7,2-1.2,3c-0.5,0.9-1.1,1.8-1.8,2.6c-0.7,0.8-1.5,1.5-2.4,2
		c-0.9,0.5-1.8,0.9-2.7,1.2c-0.9,0.3-1.9,0.5-2.9,0.6c-1,0.1-2.1,0.2-3.1,0.2H40.3z M43.3,138.9h7.1c1.3,0,2.6-0.1,3.8-0.2
		s2.4-0.6,3.6-1.2c1-0.5,1.9-1.2,2.6-2.1c0.7-0.9,1.2-1.9,1.6-2.9c0.4-1.1,0.7-2.2,0.8-3.3c0.2-1.2,0.2-2.3,0.2-3.4
		c0-1.1-0.1-2.3-0.2-3.5c-0.1-1.2-0.4-2.3-0.8-3.4c-0.4-1.1-1-2-1.7-2.9c-0.7-0.9-1.6-1.6-2.7-2.2c-0.9-0.5-2-0.8-3.3-1
		c-1.3-0.1-2.6-0.2-3.9-0.2h-7.1V138.9z"/>
	<path class="st2" d="M110.5,141.4v-31.5h20.9v2.5h-18v11.4h16.2v2.5h-16.2v12.5h18.4v2.5H110.5z"/>
	<path class="st2" d="M177,132c0.1,1.4,0.4,2.6,0.9,3.6c0.5,1,1.2,1.8,2,2.4c0.8,0.6,1.7,1.1,2.8,1.3c1,0.3,2.2,0.4,3.4,0.4
		c1.4,0,2.6-0.2,3.6-0.5c1-0.3,1.8-0.8,2.5-1.4c0.6-0.6,1.1-1.3,1.4-2.1c0.3-0.8,0.5-1.6,0.5-2.5c0-1.2-0.3-2.2-0.8-3
		c-0.6-0.8-1.3-1.4-2.2-1.9c-0.9-0.5-1.9-0.9-3.1-1.2c-1.2-0.3-2.3-0.6-3.5-0.9c-1.2-0.3-2.4-0.6-3.5-1c-1.2-0.4-2.2-0.9-3.1-1.5
		c-0.9-0.6-1.6-1.5-2.2-2.5c-0.6-1-0.8-2.3-0.8-3.8c0-1.1,0.2-2.1,0.7-3.1c0.5-1,1.1-1.9,2-2.7c0.9-0.8,2-1.4,3.3-1.9
		c1.3-0.5,2.9-0.7,4.6-0.7c1.8,0,3.3,0.2,4.7,0.7c1.3,0.5,2.4,1.2,3.3,2s1.5,1.9,2,3c0.4,1.1,0.7,2.3,0.7,3.6h-2.8
		c0-1.2-0.2-2.2-0.6-3.1c-0.4-0.9-1-1.6-1.7-2.1c-0.7-0.6-1.6-1-2.5-1.2c-0.9-0.3-1.9-0.4-2.9-0.4c-1.5,0-2.8,0.2-3.8,0.6
		c-1,0.4-1.9,1-2.5,1.6c-0.6,0.7-1,1.4-1.3,2.2c-0.2,0.8-0.3,1.6-0.1,2.4c0.2,1,0.6,1.8,1.2,2.4c0.6,0.6,1.4,1.1,2.4,1.5
		c0.9,0.4,2,0.7,3.1,1c1.1,0.2,2.3,0.5,3.4,0.8c1.2,0.3,2.3,0.6,3.4,1s2.1,0.9,2.9,1.5c0.8,0.6,1.5,1.5,2,2.5c0.5,1,0.8,2.3,0.8,3.8
		c0,2.9-1,5.2-3,6.8c-2,1.6-4.8,2.4-8.5,2.4c-1.6,0-3.1-0.2-4.5-0.6c-1.4-0.4-2.6-1.1-3.6-1.9c-1-0.9-1.8-1.9-2.4-3.2
		c-0.6-1.3-0.9-2.8-0.9-4.5H177z"/>
	<path class="st2" d="M242.2,141.4v-31.5h3v31.5H242.2z"/>
	<path class="st2" d="M305.3,127.7v-2.5h13.5v16.3h-2.5V136c-0.6,0.9-1.2,1.8-1.9,2.6c-0.7,0.8-1.5,1.4-2.5,2c-0.9,0.5-2,1-3.2,1.2
		c-1.2,0.3-2.6,0.4-4.2,0.4c-2,0-3.8-0.3-5.5-1s-3.1-1.7-4.4-3.1c-1.2-1.4-2.2-3.1-2.9-5.2c-0.7-2.1-1-4.5-1-7.3
		c0-2.3,0.3-4.4,0.9-6.4c0.6-2,1.5-3.7,2.7-5.2c1.2-1.5,2.7-2.6,4.5-3.5c1.8-0.8,4-1.3,6.4-1.3c1.7,0,3.2,0.2,4.7,0.6
		c1.4,0.4,2.7,1,3.9,1.9c1.2,0.8,2.1,1.9,2.9,3.1c0.8,1.2,1.4,2.7,1.7,4.4h-3.1c-0.3-1.2-0.7-2.2-1.3-3.1c-0.6-0.9-1.4-1.7-2.2-2.3
		s-1.8-1.1-2.9-1.4c-1.1-0.3-2.2-0.5-3.4-0.5c-2.1,0-3.8,0.4-5.3,1.1c-1.5,0.7-2.7,1.8-3.7,3.1c-1,1.3-1.7,2.9-2.1,4.8
		c-0.5,1.8-0.7,3.9-0.7,6.1c0,1.7,0.3,3.4,0.8,5s1.3,3,2.2,4.2c1,1.2,2.2,2.1,3.6,2.8s3,1,4.8,1c0.8,0,1.7-0.1,2.6-0.3
		c0.9-0.2,1.8-0.5,2.6-0.9c0.8-0.4,1.6-1,2.4-1.7c0.7-0.7,1.4-1.6,1.9-2.6c0.5-1,0.8-2,1-3.1c0.2-1.1,0.3-2.2,0.3-3.4H305.3z"/>
	<path class="st2" d="M367.5,114L367.5,114l-0.1,27.4h-3v-31.5h3.4l18.2,27.5h0.1v-27.5h3v31.5h-3.5L367.5,114z"/>
</g>
<g>
</g>
<g>
</g>
<g>
</g>
<g>
</g>
<g>
</g>
<g>
</g>
</svg>
