<?xml version="1.0" encoding="utf-8"?>
<!-- Generator: Adobe Illustrator 18.1.1, SVG Export Plug-In . SVG Version: 6.00 Build 0)  -->
<svg version="1.1" id="Layer_1" xmlns="http://www.w3.org/2000/svg" xmlns:xlink="http://www.w3.org/1999/xlink" x="0px" y="0px"
	 viewBox="0 0 2908.8 2908.8" style="enable-background:new 0 0 2908.8 2908.8;" xml:space="preserve">
<style type="text/css">
	.st0{fill:#EBA19F;}
	.st1{fill:#1E676C;}
	.st2{fill:#41BCC5;}
	.st3{fill:#A4DCE3;}
	.st4{fill:#6C201E;}
	
		.st5{fill:none;stroke:#A4DCE3;stroke-width:15.9747;stroke-linecap:round;stroke-linejoin:round;stroke-dasharray:3.9937,31.9494,0;}
	.st6{fill:#B84845;}
	
		.st7{fill:none;stroke:#B84845;stroke-width:15.9747;stroke-linecap:round;stroke-linejoin:round;stroke-dasharray:3.9937,31.9494,0;}
	
		.st8{fill:none;stroke:#1E676C;stroke-width:15.9747;stroke-linecap:round;stroke-linejoin:round;stroke-dasharray:3.9937,31.9494,0;}
	.st9{fill:#C7E9F5;}
</style>
<g>
	<path class="st0" d="M1971.8,2472.6c-210-126.9-331.8-94.3-438.4,122.3c-136.4-199.3-257.6-214.6-436.1-53.5
		c-49.7-235.3-156.8-294.1-384.3-213.1c41-237.9-38.3-335.9-282.8-356.6c126.9-210,94.3-331.8-122.3-438.4
		c199.3-136.4,214.6-257.6,53.5-436.1c235.3-49.7,294.1-156.8,213.1-384.3c237.9,41,335.9-38.3,356.6-282.8
		c210,126.9,331.8,94.3,438.4-122.3c136.4,199.3,257.6,214.6,436.1,53.5c49.7,235.3,156.8,294.1,384.3,213.1
		c-41,237.9,38.3,335.9,282.8,356.6c-126.9,210-94.3,331.8,122.3,438.4c-199.3,136.4-214.6,257.6-53.5,436.1
		c-235.3,49.7-294.1,156.8-213.1,384.3C2090.5,2148.8,1992.5,2228.2,1971.8,2472.6z"/>
	<path class="st1" d="M1805.6,2541.5c-187.5-158.2-313-145-452.1,52.2c-103.6-218.1-220.9-252.2-422.4-121
		c-12.3-240.2-108.8-315-346.2-270.6c77.8-228.5,14.7-337.7-223.5-396.5c158.2-187.5,145-313-52.2-452.1
		c218.1-103.6,252.2-220.9,121-422.4c240.2-12.3,315-108.8,270.6-346.2c228.5,77.8,337.7,14.7,396.5-223.5
		c187.5,158.2,313,145,452.1-52.2c103.6,218.1,220.9,252.2,422.4,121c12.3,240.2,108.8,315,346.2,270.6
		c-77.8,228.5-14.7,337.7,223.5,396.5c-158.2,187.5-145,313,52.2,452.1c-218.1,103.6-252.2,220.9-121,422.4
		c-240.2,12.3-315,108.8-270.6,346.2C1973.5,2240.2,1864.3,2303.3,1805.6,2541.5z"/>
	<path class="st2" d="M2597.6,1451.4c-208.4,129.5-234.6,252.8-90.1,446.1c-239.5,31.1-308.1,132.1-245.6,364.3
		c-232.2-62.5-333.2,6.2-364.3,245.6c-193.3-144.6-316.7-118.3-446.1,90.1c-129.5-208.4-252.8-234.6-446.1-90.1
		C974.2,2268,873.2,2199.4,641,2261.9c62.5-232.2-6.2-333.2-245.6-364.3c144.6-193.3,118.3-316.7-90.1-446.1
		c208.4-129.5,234.6-252.8,90.1-446.1C634.8,974.2,703.5,873.2,641,641c232.2,62.5,333.2-6.2,364.3-245.6
		c193.3,144.6,316.7,118.3,446.1-90.1c129.5,208.4,252.8,234.6,446.1,90.1c31.1,239.5,132.1,308.1,364.3,245.6
		c-62.5,232.2,6.2,333.2,245.6,364.3C2362.9,1198.6,2389.2,1321.9,2597.6,1451.4z"/>
	<path class="st3" d="M2418.9,1451.4c215,163.3,181.9,318.8-76,376.6c138.3,225.2,51.7,352.6-207.4,307.5
		c45,259-82.4,345.6-307.5,207.4c-57.8,258-213.3,291-376.6,76c-163.3,215-318.8,181.9-376.6-76
		c-225.2,138.3-352.6,51.7-307.5-207.4c-259,45-345.6-82.4-207.4-307.5c-258-57.8-291-213.3-76-376.6
		c-215-163.3-181.9-318.8,76-376.6c-138.3-225.2-51.7-352.6,207.4-307.5c-45-259,82.4-345.6,307.5-207.4
		c57.8-258,213.3-291,376.6-76c163.3-215,318.8-181.9,376.6,76c225.2-138.3,352.6-51.7,307.5,207.4c259-45,345.6,82.4,207.4,307.5
		C2600.9,1132.6,2634,1288.1,2418.9,1451.4z"/>
	<path class="st4" d="M2294.9,1451.4c297.7,157.6,265.8,307.7-66.3,328.3c216.6,252.4,133,375.4-180.8,268.1
		c107.3,313.8-15.7,397.3-268.1,180.8c-20.7,332.1-170.8,364-328.3,66.3c-157.6,297.7-307.7,265.8-328.3-66.3
		c-252.4,216.6-375.4,133-268.1-180.8c-313.8,107.3-397.3-15.7-180.8-268.1c-332.1-20.7-364-170.8-66.3-328.3
		c-297.7-157.6-265.8-307.7,66.3-328.3C457.6,870.7,541.2,747.7,855,855c-107.3-313.8,15.7-397.3,268.1-180.8
		c20.7-332.1,170.8-364,328.3-66.3c157.6-297.7,307.7-265.8,328.3,66.3c252.4-216.6,375.4-133,268.1,180.8
		c313.8-107.3,397.3,15.7,180.8,268.1C2560.7,1143.7,2592.6,1293.8,2294.9,1451.4z"/>
	<path class="st4" d="M2443.8,1451.4c0,137-27.8,267.5-78,386.3c-50.2,118.7-122.9,225.6-212.7,315.4
		c-89.8,89.8-196.7,162.5-315.4,212.7c-118.7,50.2-249.3,78-386.3,78s-267.5-27.8-386.3-78c-118.7-50.2-225.6-122.9-315.4-212.7
		c-89.8-89.8-162.5-196.7-212.7-315.4c-50.2-118.7-78-249.3-78-386.3s27.8-267.5,78-386.3s122.9-225.6,212.7-315.4
		S946.4,587.3,1065.1,537s249.3-78,386.3-78s267.5,27.8,386.3,78c118.7,50.2,225.6,122.9,315.4,212.7
		c89.8,89.8,162.5,196.7,212.7,315.4C2416,1183.9,2443.8,1314.4,2443.8,1451.4z"/>
	<path class="st1" d="M2394.1,1451.4c0,130.2-26.4,254.2-74.1,367c-47.7,112.8-116.7,214.4-202,299.7
		c-85.3,85.3-186.9,154.3-299.7,202c-112.8,47.7-236.8,74.1-367,74.1s-254.2-26.4-367-74.1c-112.8-47.7-214.4-116.7-299.7-202
		c-85.3-85.3-154.3-186.9-202-299.7s-74.1-236.8-74.1-367s26.4-254.2,74.1-367s116.7-214.4,202-299.7s186.9-154.3,299.7-202
		s236.8-74.1,367-74.1s254.2,26.4,367,74.1s214.4,116.7,299.7,202c85.3,85.3,154.3,186.9,202,299.7
		C2367.8,1197.2,2394.1,1321.2,2394.1,1451.4z"/>
	<path class="st5" d="M2369.3,1451.4c0,126.7-25.7,247.5-72.1,357.3c-46.4,109.8-113.7,208.7-196.7,291.8
		c-83.1,83.1-182,150.3-291.8,196.7c-109.8,46.4-230.6,72.1-357.3,72.1s-247.5-25.7-357.3-72.1c-109.8-46.4-208.7-113.7-291.8-196.7
		c-83.1-83.1-150.3-182-196.7-291.8c-46.4-109.8-72.1-230.6-72.1-357.3s25.7-247.5,72.1-357.3c46.4-109.8,113.7-208.7,196.7-291.8
		s182-150.3,291.8-196.7c109.8-46.4,230.6-72.1,357.3-72.1s247.5,25.7,357.3,72.1c109.8,46.4,208.7,113.7,291.8,196.7
		c83.1,83.1,150.3,182,196.7,291.8C2343.6,1203.9,2369.3,1324.7,2369.3,1451.4z"/>
	<path class="st0" d="M2344.5,1451.4c0,123.3-25,240.8-70.2,347.6c-45.2,106.9-110.6,203.1-191.4,283.9
		c-80.8,80.8-177,146.2-283.9,191.4c-106.9,45.2-224.3,70.2-347.6,70.2s-240.8-25-347.6-70.2c-106.9-45.2-203.1-110.6-283.9-191.4
		c-80.8-80.8-146.2-177-191.4-283.9s-70.2-224.3-70.2-347.6s25-240.8,70.2-347.6s110.6-203.1,191.4-283.9s177-146.2,283.9-191.4
		s224.3-70.2,347.6-70.2s240.8,25,347.6,70.2s203.1,110.6,283.9,191.4c80.8,80.8,146.2,177,191.4,283.9
		C2319.5,1210.6,2344.5,1328.1,2344.5,1451.4z"/>
	<path class="st1" d="M2328.1,1621.8c-149.9,77.9-189.9,172-135.2,327.9c-165,8.2-235.3,78-242.1,242.1
		c-154.7-55.3-245.8-16.2-315.2,133.7c-124-109.1-226.3-107.3-354.6,2.6c-77.9-149.9-172-189.9-327.9-135.2
		c-8.2-165-78-235.3-242.1-242.1c55.3-154.7,16.2-245.8-133.7-315.2c109.1-124,107.3-226.3-2.6-354.6
		c149.9-77.9,189.9-172,135.2-327.9c165-8.2,235.3-78,242.1-242.1c154.7,55.3,245.8,16.2,315.2-133.7
		c124,109.1,226.3,107.3,354.6-2.6c77.9,149.9,172,189.9,327.9,135.2c8.2,165,78,235.3,242.1,242.1
		c-55.3,154.7-16.2,245.8,133.7,315.2C2216.5,1391.2,2218.3,1493.5,2328.1,1621.8z"/>
	<path class="st6" d="M2344.5,1451.4c-132.3,105-153.6,205.1-70.2,347.6c-160.4,39.5-216.1,121.5-191.4,283.9
		c-162.4-24.7-244.4,31-283.9,191.4c-142.5-83.4-242.6-62.1-347.6,70.2c-105-132.3-205.1-153.6-347.6-70.2
		c-39.5-160.4-121.5-216.1-283.9-191.4c24.7-162.4-31-244.4-191.4-283.9c83.4-142.5,62.1-242.6-70.2-347.6
		c132.3-105,153.6-205.1,70.2-347.6c160.4-39.5,216.1-121.5,191.4-283.9c162.4,24.7,244.4-31,283.9-191.4
		c142.5,83.4,242.6,62.1,347.6-70.2c105,132.3,205.1,153.6,347.6,70.2c39.5,160.4,121.5,216.1,283.9,191.4
		c-24.7,162.4,31,244.4,191.4,283.9C2190.9,1246.3,2212.2,1346.4,2344.5,1451.4z"/>
	<path class="st4" d="M2228.8,1451.4c0,107.3-21.8,209.6-61.1,302.6c-39.3,93-96.3,176.8-166.6,247.1S1847,2128.3,1754,2167.7
		c-93,39.3-195.2,61.1-302.6,61.1c-107.3,0-209.6-21.8-302.6-61.1c-93-39.3-176.8-96.3-247.1-166.6S774.5,1847,735.2,1754
		s-61.1-195.2-61.1-302.6c0-107.3,21.8-209.6,61.1-302.6c39.3-93,96.3-176.8,166.6-247.1s154.1-127.3,247.1-166.6
		c93-39.3,195.2-61.1,302.6-61.1c107.3,0,209.6,21.8,302.6,61.1s176.8,96.3,247.1,166.6s127.3,154.1,166.6,247.1
		C2207,1241.8,2228.8,1344.1,2228.8,1451.4z"/>
	<path class="st4" d="M1616.8,1451.4c0,22.8-4.6,44.6-13,64.4c-8.4,19.8-20.5,37.6-35.4,52.6s-32.8,27.1-52.6,35.4
		c-19.8,8.4-41.5,13-64.4,13s-44.6-4.6-64.4-13s-37.6-20.5-52.6-35.4s-27.1-32.8-35.4-52.6c-8.4-19.8-13-41.5-13-64.4
		s4.6-44.6,13-64.4s20.5-37.6,35.4-52.6s32.8-27.1,52.6-35.4s41.5-13,64.4-13s44.6,4.6,64.4,13c19.8,8.4,37.6,20.5,52.6,35.4
		s27.1,32.8,35.4,52.6S1616.8,1428.6,1616.8,1451.4z"/>
	<path class="st4" d="M2150,1451.4c190.5,122.8,165.7,239.7-54.9,271.9c130.6,180.5,65.5,276.3-149.7,222.1
		c54.3,215.2-41.5,280.3-222.1,149.7c-32.2,220.6-149.2,245.4-271.9,54.9c-122.8,190.5-239.7,165.7-271.9-54.9
		c-180.5,130.6-276.3,65.5-222.1-149.7c-215.2,54.3-280.3-41.5-149.7-222.1c-220.6-32.2-245.4-149.2-54.9-271.9
		c-190.5-122.8-165.7-239.7,54.9-271.9c-130.6-180.5-65.5-276.3,149.7-222.1c-54.3-215.2,41.5-280.3,222.1-149.7
		c32.2-220.6,149.2-245.4,271.9-54.9c122.8-190.5,239.7-165.7,271.9,54.9c180.5-130.6,276.3-65.5,222.1,149.7
		c215.2-54.3,280.3,41.5,149.7,222.1C2315.7,1211.7,2340.6,1328.6,2150,1451.4z"/>
	<path class="st0" d="M2040.9,1451.4c276.5,119.6,252.3,233.5-46.3,229.4c211,211.2,147.6,304.5-126.3,187.4
		c117.2,273.9,23.9,337.3-187.4,126.3c4,298.6-109.9,322.9-229.4,46.3c-119.6,276.5-233.5,252.3-229.4-46.3
		c-211.2,211-304.5,147.6-187.4-126.3c-273.9,117.2-337.3,23.9-126.3-187.4c-298.6,4-322.9-109.9-46.3-229.4
		c-276.5-119.6-252.3-233.5,46.3-229.4c-211-211.2-147.6-304.5,126.3-187.4c-117.2-273.9-23.9-337.3,187.4-126.3
		c-4-298.6,109.9-322.9,229.4-46.3c119.6-276.5,233.5-252.3,229.4,46.3c211.2-211,304.5-147.6,187.4,126.3
		c273.9-117.2,337.3-23.9,126.3,187.4C2293.2,1217.9,2317.4,1331.8,2040.9,1451.4z"/>
	<path class="st2" d="M1953.2,1451.4c352.6,118,328.7,230.4-39.4,195.3c281.7,239.5,219.1,331.5-107.5,159.5
		c172,326.6,80,389.2-159.5,107.5c35,368.1-77.4,392-195.3,39.4c-118,352.6-230.4,328.7-195.3-39.4
		c-239.5,281.7-331.5,219.1-159.5-107.5c-326.6,172-389.2,80-107.5-159.5c-368.1,35-392-77.4-39.4-195.3
		c-352.6-118-328.7-230.4,39.4-195.3c-281.7-239.5-219.1-331.5,107.5-159.5c-172-326.6-80-389.2,159.5-107.5
		c-35-368.1,77.4-392,195.3-39.4c118-352.6,230.4-328.7,195.3,39.4c239.5-281.7,331.5-219.1,159.5,107.5
		c326.6-172,389.2-80,107.5,159.5C2281.9,1221.1,2305.8,1333.4,1953.2,1451.4z"/>
	<path class="st1" d="M1927.7,1451.4c370.5,116.9,346.8,228.3-37.4,185.4c298.5,245.5,236.5,336.8-102.1,151.4
		c185.3,338.6,94.1,400.6-151.4,102.1c42.9,384.2-68.5,407.9-185.4,37.4c-116.9,370.5-228.3,346.8-185.4-37.4
		c-245.5,298.5-336.8,236.5-151.4-102.1c-338.6,185.3-400.6,94.1-102.1-151.4c-384.2,42.9-407.9-68.5-37.4-185.4
		c-370.5-116.9-346.8-228.3,37.4-185.4C714,1020.5,776,929.3,1114.6,1114.6C929.3,776,1020.5,714,1266,1012.5
		c-42.9-384.2,68.5-407.9,185.4-37.4c116.9-370.5,228.3-346.8,185.4,37.4c245.5-298.5,336.8-236.5,151.4,102.1
		c338.6-185.3,400.6-94.1,102.1,151.4C2274.5,1223.1,2298.2,1334.5,1927.7,1451.4z"/>
	<path class="st3" d="M2179.1,1451.4c0,100.5-20.4,196.2-57.2,283.3s-90.1,165.5-156,231.3c-65.8,65.8-144.3,119.1-231.3,156
		s-182.8,57.2-283.3,57.2s-196.2-20.4-283.3-57.2c-87.1-36.8-165.5-90.1-231.3-156c-65.8-65.8-119.1-144.3-156-231.3
		c-36.8-87.1-57.2-182.8-57.2-283.3s20.4-196.2,57.2-283.3c36.8-87.1,90.1-165.5,156-231.3s144.3-119.1,231.3-156
		c87.1-36.8,182.8-57.2,283.3-57.2s196.2,20.4,283.3,57.2c87.1,36.8,165.5,90.1,231.3,156c65.8,65.8,119.1,144.3,156,231.3
		C2158.8,1255.2,2179.1,1350.9,2179.1,1451.4z"/>
	<path class="st2" d="M2120.3,1509.9c-190.4,50.7-209.5,113.3-75.3,255.8c-193.3-30.9-233.4,18.2-162,200.1
		c-166.7-101.9-222-71-225.2,124.8c-117.1-156.9-182-148.9-265,29.8c-50.7-190.4-113.3-209.5-255.8-75.3
		c30.9-193.3-18.2-233.4-200.1-162c101.9-166.7,71-222-124.8-225.2c156.9-117.1,148.9-182-29.8-265
		c190.4-50.7,209.5-113.3,75.3-255.8c193.3,30.9,233.4-18.2,162-200.1c166.7,101.9,222,71,225.2-124.8
		c117.1,156.9,182,148.9,265-29.8c50.7,190.4,113.3,209.5,255.8,75.3c-30.9,193.3,18.2,233.4,200.1,162
		c-101.9,166.7-71,222,124.8,225.2C1933.7,1362,1941.7,1426.9,2120.3,1509.9z"/>
	<path class="st1" d="M2093.6,1647.7c-196.8,10-228.5,67.2-126.9,234.5c-182.7-70.4-232-30.7-200,162
		c-141.9-134.3-202.4-115.6-246.2,75.2c-81.9-177.8-147-183.5-265.4-26c-10-196.8-67.2-228.5-234.5-126.9
		c70.4-182.7,30.7-232-162-200c134.3-141.9,115.6-202.4-75.2-246.2c177.8-81.9,183.5-147,26-265.4c196.8-10,228.5-67.2,126.9-234.5
		c182.7,70.4,232,30.7,200-162c141.9,134.3,202.4,115.6,246.2-75.2c81.9,177.8,147,183.5,265.4,26c10,196.8,67.2,228.5,234.5,126.9
		c-70.4,182.7-30.7,232,162,200c-134.3,141.9-115.6,202.4,75.2,246.2C1941.7,1464.2,1936,1529.4,2093.6,1647.7z"/>
	<path class="st4" d="M2110.6,1579.5c-194.6,30.6-220.2,90.7-101.7,246.5c-189-50.9-234-6.3-182,182.1
		c-155.2-118.8-213.4-93.8-237,100.5c-100-168.2-165.4-167.1-266.6,1.9c-30.6-194.6-90.7-220.2-246.5-101.7
		c50.9-189,6.3-234-182.1-182c118.8-155.2,93.8-213.4-100.5-237c168.2-100,167.1-165.4-1.9-266.6c194.6-30.6,220.2-90.7,101.7-246.5
		c189,50.9,234,6.3,182-182.1c155.2,118.8,213.4,93.8,237-100.5c100,168.2,165.4,167.1,266.6-1.9c30.6,194.6,90.7,220.2,246.5,101.7
		c-50.9,189-6.3,234,182.1,182c-118.8,155.2-93.8,213.4,100.5,237C1940.4,1412.9,1941.5,1478.3,2110.6,1579.5z"/>
	<path class="st6" d="M2071.6,1451.4c0,85.6-17.4,167.2-48.7,241.4s-76.8,141-132.9,197.1s-122.9,101.5-197.1,132.9
		s-155.8,48.7-241.4,48.7s-167.2-17.4-241.4-48.7c-74.2-31.4-141-76.8-197.1-132.9c-56.1-56.1-101.5-122.9-132.9-197.1
		s-48.7-155.8-48.7-241.4s17.4-167.2,48.7-241.4c31.4-74.2,76.8-141,132.9-197.1c56.1-56.1,122.9-101.5,197.1-132.9
		c74.2-31.4,155.8-48.7,241.4-48.7s167.2,17.4,241.4,48.7s141,76.8,197.1,132.9c56.1,56.1,101.5,122.9,132.9,197.1
		C2054.3,1284.2,2071.6,1365.8,2071.6,1451.4z"/>
	<path class="st2" d="M1959.2,1451.4c125.5,87.4,107.8,170.8-39.9,197.7c83.6,124.6,37.2,192.9-108.8,161.4
		c31.5,146.1-36.8,192.5-161.4,108.8c-26.9,147.7-110.2,165.4-197.7,39.9c-87.4,125.5-170.8,107.8-197.7-39.9
		c-124.6,83.6-192.9,37.2-161.4-108.8c-146.1,31.5-192.5-36.8-108.8-161.4c-147.7-26.9-165.4-110.2-39.9-197.7
		c-125.5-87.4-107.8-170.8,39.9-197.7c-83.6-124.6-37.2-192.9,108.8-161.4c-31.5-146.1,36.8-192.5,161.4-108.8
		c26.9-147.7,110.2-165.4,197.7-39.9c87.4-125.5,170.8-107.8,197.7,39.9c124.6-83.6,192.9-37.2,161.4,108.8
		c146.1-31.5,192.5,36.8,108.8,161.4C2067.1,1280.7,2084.8,1364,1959.2,1451.4z"/>
	<path class="st3" d="M1933.4,1451.4c144.1,86.4,126.5,168.8-37.9,187.6c101.1,131,55.2,198.4-103.3,153.2
		c45.2,158.5-22.2,204.4-153.2,103.3c-18.8,164.4-101.2,181.9-187.6,37.9c-86.4,144.1-168.8,126.5-187.6-37.9
		c-131,101.1-198.4,55.2-153.2-103.3C952,1837.5,906.2,1770,1007.3,1639c-164.4-18.8-181.9-101.2-37.9-187.6
		c-144.1-86.4-126.5-168.8,37.9-187.6c-101.1-131-55.2-198.4,103.3-153.2c-45.2-158.5,22.2-204.4,153.2-103.3
		c18.8-164.4,101.2-181.9,187.6-37.9c86.4-144.1,168.8-126.5,187.6,37.9c131-101.1,198.4-55.2,153.2,103.3
		c158.5-45.2,204.4,22.2,103.3,153.2C2060,1282.6,2077.5,1365,1933.4,1451.4z"/>
	<path class="st4" d="M2122.9,1451.4c-185.2,67.1-198.8,131.1-52.8,261.4c-195.3-13.9-230.9,38.5-143.9,213.4
		c-175-87-227.4-51.4-213.4,143.9c-130.3-146.1-194.2-132.5-261.4,52.8c-67.1-185.2-131.1-198.8-261.4-52.8
		c13.9-195.3-38.5-230.9-213.4-143.9c87-175,51.4-227.4-143.9-213.4c146.1-130.3,132.5-194.2-52.8-261.4
		c185.2-67.1,198.8-131.1,52.8-261.4c195.3,13.9,230.9-38.5,143.9-213.4c175,87,227.4,51.4,213.4-143.9
		c130.3,146.1,194.2,132.5,261.4-52.8c67.1,185.2,131.1,198.8,261.4,52.8c-13.9,195.3,38.5,230.9,213.4,143.9
		c-87,175-51.4,227.4,143.9,213.4C1924.1,1320.3,1937.7,1384.3,2122.9,1451.4z"/>
	<path class="st0" d="M1947.6,1451.4c0,68.5-13.9,133.8-39,193.1s-61.4,112.8-106.3,157.7s-98.4,81.2-157.7,106.3
		s-124.6,39-193.1,39s-133.8-13.9-193.1-39s-112.8-61.4-157.7-106.3c-44.9-44.9-81.2-98.4-106.3-157.7c-25.1-59.4-39-124.6-39-193.1
		s13.9-133.8,39-193.1c25.1-59.4,61.4-112.8,106.3-157.7c44.9-44.9,98.4-81.2,157.7-106.3c59.4-25.1,124.6-39,193.1-39
		s133.8,13.9,193.1,39c59.4,25.1,112.8,61.4,157.7,106.3c44.9,44.9,81.2,98.4,106.3,157.7S1947.6,1382.9,1947.6,1451.4z"/>
	<path class="st6" d="M1815.3,1451.4c0,50.2-10.2,98.1-28.6,141.6s-45.1,82.7-78,115.7s-72.1,59.6-115.7,78s-91.4,28.6-141.6,28.6
		c-50.2,0-98.1-10.2-141.6-28.6s-82.7-45.1-115.7-78s-59.6-72.1-78-115.7c-18.4-43.5-28.6-91.4-28.6-141.6
		c0-50.2,10.2-98.1,28.6-141.6c18.4-43.5,45.1-82.7,78-115.7s72.1-59.6,115.7-78c43.5-18.4,91.4-28.6,141.6-28.6
		c50.2,0,98.1,10.2,141.6,28.6c43.5,18.4,82.7,45.1,115.7,78s59.6,72.1,78,115.7S1815.3,1401.2,1815.3,1451.4z"/>
	<path class="st2" d="M1782.2,1451.4c0,45.7-9.3,89.2-26,128.8c-16.7,39.6-41,75.2-70.9,105.1s-65.6,54.2-105.1,70.9
		c-39.6,16.7-83.1,26-128.8,26c-45.7,0-89.2-9.3-128.8-26c-39.6-16.7-75.2-41-105.1-70.9c-29.9-29.9-54.2-65.6-70.9-105.1
		c-16.7-39.6-26-83.1-26-128.8c0-45.7,9.3-89.2,26-128.8c16.7-39.6,41-75.2,70.9-105.1c29.9-29.9,65.6-54.2,105.1-70.9
		c39.6-16.7,83.1-26,128.8-26c45.7,0,89.2,9.3,128.8,26c39.6,16.7,75.2,41,105.1,70.9c29.9,29.9,54.2,65.6,70.9,105.1
		C1772.9,1362.2,1782.2,1405.7,1782.2,1451.4z"/>
	<path class="st1" d="M1683.5,1451.4c296.7,73,281.9,142.6-18.2,90.3c246.6,178.8,207.9,235.7-49.7,73.8
		c162,257.7,105,296.4-73.8,49.7c52.2,300.2-17.3,314.9-90.3,18.2c-73,296.7-142.6,281.9-90.3-18.2
		c-178.8,246.6-235.7,207.9-73.8-49.7c-257.7,162-296.4,105-49.7-73.8c-300.2,52.2-314.9-17.3-18.2-90.3
		c-296.7-73-281.9-142.6,18.2-90.3c-246.6-178.8-207.9-235.7,49.7-73.8c-162-257.7-105-296.4,73.8-49.7
		c-52.2-300.2,17.3-314.9,90.3-18.2c73-296.7,142.6-281.9,90.3,18.2c178.8-246.6,235.7-207.9,73.8,49.7
		c257.7-162,296.4-105,49.7,73.8C1965.4,1308.9,1980.2,1378.4,1683.5,1451.4z"/>
	<path class="st0" d="M1644.3,1488.9c46,44.1,32.9,75.1-29.8,72.1c26.4,56.9,3.2,79.8-53.3,53.3c3.4,62.3-26.5,75.2-69.3,29.4
		c-20.7,59.2-54.4,59.8-78,0.6c-44.1,46-75.1,32.9-72.1-29.8c-56.9,26.4-79.8,3.2-53.3-53.3c-62.3,3.4-75.2-26.5-29.4-69.3
		c-59.2-20.7-59.8-54.4-0.6-78c-46-44.1-32.9-75.1,29.8-72.1c-26.4-56.9-3.2-79.8,53.3-53.3c-3.4-62.3,26.5-75.2,69.3-29.4
		c20.7-59.2,54.4-59.8,78-0.6c44.1-46,75.1-32.9,72.1,29.8c56.9-26.4,79.8-3.2,53.3,53.3c62.3-3.4,75.2,26.5,29.4,69.3
		C1702.9,1431.6,1703.5,1465.2,1644.3,1488.9z"/>
	<path class="st3" d="M1655.2,1451.4c55.6,35.8,48.3,69.9-16,79.3c38.1,52.7,19.1,80.6-43.7,64.8c15.8,62.8-12.1,81.7-64.8,43.7
		c-9.4,64.3-43.5,71.6-79.3,16c-35.8,55.6-69.9,48.3-79.3-16c-52.7,38.1-80.6,19.1-64.8-43.7c-62.8,15.8-81.7-12.1-43.7-64.8
		c-64.3-9.4-71.6-43.5-16-79.3c-55.6-35.8-48.3-69.9,16-79.3c-38.1-52.7-19.1-80.6,43.7-64.8c-15.8-62.8,12.1-81.7,64.8-43.7
		c9.4-64.3,43.5-71.6,79.3-16c35.8-55.6,69.9-48.3,79.3,16c52.7-38.1,80.6-19.1,64.8,43.7c62.8-15.8,81.7,12.1,43.7,64.8
		C1703.5,1381.5,1710.7,1415.6,1655.2,1451.4z"/>
	<path class="st4" d="M1646.6,1451.4c0,26.9-5.5,52.6-15.3,76c-9.9,23.3-24.2,44.4-41.8,62s-38.7,31.9-62,41.8
		c-23.3,9.9-49,15.3-76,15.3c-26.9,0-52.6-5.5-76-15.3s-44.4-24.2-62-41.8s-31.9-38.7-41.8-62c-9.9-23.3-15.3-49-15.3-76
		c0-26.9,5.5-52.6,15.3-76s24.2-44.4,41.8-62s38.7-31.9,62-41.8s49-15.3,76-15.3c26.9,0,52.6,5.5,76,15.3
		c23.3,9.9,44.4,24.2,62,41.8s31.9,38.7,41.8,62S1646.6,1424.5,1646.6,1451.4z"/>
	<path class="st0" d="M1616.8,1451.4c0,22.8-4.6,44.6-13,64.4c-8.4,19.8-20.5,37.6-35.4,52.6s-32.8,27.1-52.6,35.4
		c-19.8,8.4-41.5,13-64.4,13s-44.6-4.6-64.4-13s-37.6-20.5-52.6-35.4s-27.1-32.8-35.4-52.6c-8.4-19.8-13-41.5-13-64.4
		s4.6-44.6,13-64.4s20.5-37.6,35.4-52.6s32.8-27.1,52.6-35.4s41.5-13,64.4-13s44.6,4.6,64.4,13c19.8,8.4,37.6,20.5,52.6,35.4
		s27.1,32.8,35.4,52.6S1616.8,1428.6,1616.8,1451.4z"/>
	<path class="st4" d="M1589.1,1451.4c-27.3,15.2-30.4,29.8-10.8,53.6c-30.7,2.6-38.8,14.5-29.5,43.8c-29.3-9.3-41.2-1.2-43.8,29.5
		c-23.8-19.6-38.4-16.5-53.6,10.8c-15.2-27.3-29.8-30.4-53.6-10.8c-2.6-30.7-14.5-38.8-43.8-29.5c9.3-29.3,1.2-41.2-29.5-43.8
		c19.6-23.8,16.5-38.4-10.8-53.6c27.3-15.2,30.4-29.8,10.8-53.6c30.7-2.6,38.8-14.5,29.5-43.8c29.3,9.3,41.2,1.2,43.8-29.5
		c23.8,19.6,38.4,16.5,53.6-10.8c15.2,27.3,29.8,30.4,53.6,10.8c2.6,30.7,14.5,38.8,43.8,29.5c-9.3,29.3-1.2,41.2,29.5,43.8
		C1558.7,1421.6,1561.8,1436.2,1589.1,1451.4z"/>
	<path class="st6" d="M1550.6,1451.4c0,13.7-2.8,26.8-7.8,38.6c-5,11.9-12.3,22.6-21.3,31.5s-19.7,16.2-31.5,21.3
		c-11.9,5-24.9,7.8-38.6,7.8c-13.7,0-26.8-2.8-38.6-7.8c-11.9-5-22.6-12.3-31.5-21.3c-9-9-16.2-19.7-21.3-31.5
		c-5-11.9-7.8-24.9-7.8-38.6c0-13.7,2.8-26.8,7.8-38.6c5-11.9,12.3-22.6,21.3-31.5c9-9,19.7-16.2,31.5-21.3
		c11.9-5,24.9-7.8,38.6-7.8c13.7,0,26.8,2.8,38.6,7.8c11.9,5,22.6,12.3,31.5,21.3c9,9,16.2,19.7,21.3,31.5
		C1547.9,1424.7,1550.6,1437.7,1550.6,1451.4z"/>
	<path class="st7" d="M1931,1451.4c0,66.2-13.4,129.3-37.7,186.7c-24.3,57.4-59.4,109.1-102.8,152.5s-95.1,78.5-152.5,102.8
		c-57.4,24.3-120.5,37.7-186.7,37.7s-129.3-13.4-186.7-37.7c-57.4-24.3-109.1-59.4-152.5-102.8c-43.4-43.4-78.5-95.1-102.8-152.5
		s-37.7-120.5-37.7-186.7s13.4-129.3,37.7-186.7c24.3-57.4,59.4-109.1,102.8-152.5c43.4-43.4,95.1-78.5,152.5-102.8
		c57.4-24.3,120.5-37.7,186.7-37.7s129.3,13.4,186.7,37.7s109.1,59.4,152.5,102.8c43.4,43.4,78.5,95.1,102.8,152.5
		C1917.6,1322.1,1931,1385.2,1931,1451.4z"/>
	<path class="st8" d="M2146.1,1451.4c0,95.9-19.4,187.3-54.6,270.4c-35.2,83.1-86,157.9-148.9,220.8s-137.7,113.7-220.8,148.9
		c-83.1,35.2-174.5,54.6-270.4,54.6s-187.3-19.4-270.4-54.6c-83.1-35.2-157.9-86-220.8-148.9s-113.7-137.7-148.9-220.8
		c-35.2-83.1-54.6-174.5-54.6-270.4s19.4-187.3,54.6-270.4c35.2-83.1,86-157.9,148.9-220.8s137.7-113.7,220.8-148.9
		c83.1-35.2,174.5-54.6,270.4-54.6s187.3,19.4,270.4,54.6c83.1,35.2,157.9,86,220.8,148.9s113.7,137.7,148.9,220.8
		C2126.6,1264.1,2146.1,1355.5,2146.1,1451.4z"/>
</g>
<g>
	<path class="st9" d="M2895.2,7.8v2887.4H13.6V7.8H2895.2 M2908.8-5.8H0v2914.6h2908.8V-5.8L2908.8-5.8z"/>
</g>
</svg>
