<?xml version="1.0" encoding="utf-8"?>
<!-- Generator: Adobe Illustrator 18.1.1, SVG Export Plug-In . SVG Version: 6.00 Build 0)  -->
<svg version="1.1" id="Layer_1" xmlns="http://www.w3.org/2000/svg" xmlns:xlink="http://www.w3.org/1999/xlink" x="0px" y="0px"
	 viewBox="0 0 319.3 142.5" style="enable-background:new 0 0 319.3 142.5;" xml:space="preserve">
<style type="text/css">
	.st0{fill:#939393;}
	.st1{fill:#3F3F3F;}
	.st2{fill:#F38DBA;}
</style>
<g id="pxGFJh.tif">
	<g>
		<path class="st0" d="M285,137.1c-3.4,4.8-8.5,5.1-13.7,5.1c-31.2,0-62.3,0-93.5,0c-34.2,0-68.3-0.5-102.4,0.3
			c-14,0.3-23.3-6.1-31.5-15.9c-6.8-8.2-11.1-17.7-13.4-28.3c10,19.1,24.5,30.8,47.5,29.8c2-11.8,6.7-22.3,14.5-31.2
			c7.9-9,18-14.6,29.7-18.5c-2.4-8.3-4.7-16.3-6.9-24.1c-8,2.9-15.3,6.2-22.9,8.3c-5.5,1.5-11.5,2-17.2,1.7
			C65.5,63.5,60,58,57.7,48.4c-1.9-7.9,1.2-14.9,8.9-19.9c10-6.5,21.3-8.3,32.8-9.1c4-0.3,8.2-0.7,11.9,0.4
			c5.5,1.6,9.1-0.1,13.2-3.5c8.9-7.4,18.9-13.1,30.4-15.4c8.7-1.8,16.7-0.5,23.5,6.1c8.8,8.5,6,17.5,0.3,23.8
			c-5.7,6.3-13.3,9.4-21.3,11.3c-7.9,1.8-16,2.8-24.8,4.3c2.1,8.1,4.3,16.4,6.6,25.3c13.1-5.1,26.3-5.5,39.6-2.5
			c1.5-3.9,2.5-7.6,4.3-10.9c7.2-13.2,19.9-18.1,36.9-14.4c13.9,3,22,14,22.8,30.6c0.1,1.2,0.3,2.4,0,3.5c-2.3,7,1.7,10.7,6.7,14.6
			c8.7,6.8,15.7,15.3,20.6,25.4c0.6,1.3,2,2.8,3.4,3.2c5.5,1.6,9.1,5.2,11.5,10.2C285,133.1,285,135.1,285,137.1z M96.1,28.3
			c-8,0.5-15.9,3-21.7,9.4c-1.9,2.1-3.4,6.3-2.6,8.8c0.8,2.4,4.5,4.8,7.3,5.5c8.3,2.1,16.2-0.2,23.1-4.9c4.2-2.9,9-6.3,7.2-12.4
			C107.6,28.7,101.7,29,96.1,28.3z M144.5,35.3c7.1-0.1,14.7-2.5,20.4-8.5c2.2-2.3,4.3-6.8,3.5-9.4c-0.8-2.6-5-5.4-8.1-6
			c-8.2-1.5-16.1,0.6-23,5.6c-4.1,3-8.3,6.4-6.4,12.2C132.8,35,138.3,35.1,144.5,35.3z"/>
	</g>
</g>
<g>
	<path class="st1" d="M256.7,124.5c0,0-4-1.4-10-3.2c-1.5-0.4-3.1-0.9-4.9-1.4c-1.7-0.5-3.6-0.9-5.5-1.4c-1.9-0.5-3.9-0.9-5.9-1.3
		c-2-0.4-4-0.8-6.1-1.2c-2-0.4-4.1-0.7-6.1-0.9c-2-0.2-4-0.5-6-0.6c-1-0.1-1.9-0.1-2.9-0.1c-0.9,0-1.8-0.1-2.7-0.1
		c-0.9,0-1.8,0-2.6,0c-0.8,0-1.7,0-2.4,0.1c-0.8,0.1-1.5,0.1-2.2,0.2c-0.7,0.1-1.4,0.1-2,0.2c-1.3,0.1-2.4,0.3-3.3,0.5
		c-1.8,0.3-2.8,0.5-2.8,0.5s0.2-0.1,0.7-0.3c0.5-0.2,1.1-0.5,2-0.8c0.9-0.3,1.9-0.7,3.2-1c0.6-0.2,1.3-0.3,2-0.5
		c0.7-0.2,1.5-0.3,2.3-0.4c1.6-0.3,3.3-0.5,5.1-0.7c0.9-0.1,1.9-0.1,2.8-0.2c1-0.1,2,0,3,0c2,0,4.1,0.1,6.2,0.3
		c2.1,0.2,4.2,0.5,6.3,0.8c2.1,0.4,4.2,0.8,6.2,1.3c2,0.5,4,1.1,5.9,1.6c3.8,1.2,7.3,2.5,10.2,3.8c2.9,1.2,5.3,2.5,6.9,3.3
		C255.8,123.9,256.7,124.5,256.7,124.5z"/>
</g>
<g>
	<path class="st1" d="M256.7,128.3c0,0-3.8-0.4-9.4-0.7c-1.4-0.1-2.9-0.1-4.5-0.2c-1.6-0.1-3.3,0-5-0.1c-1.7,0-3.5,0.1-5.4,0.1
		c-1.8,0.1-3.7,0.2-5.5,0.4c-1.8,0.1-3.7,0.3-5.5,0.6c-1.8,0.3-3.6,0.5-5.2,0.9c-0.8,0.2-1.7,0.4-2.5,0.6c-0.8,0.2-1.6,0.4-2.4,0.6
		c-0.8,0.2-1.5,0.4-2.2,0.7c-0.7,0.2-1.4,0.4-2,0.7c-0.6,0.2-1.3,0.5-1.9,0.7c-0.6,0.2-1.1,0.5-1.7,0.7c-1,0.5-1.9,0.9-2.7,1.3
		c-1.5,0.8-2.3,1.2-2.3,1.2s0.2-0.2,0.5-0.4c0.3-0.3,0.8-0.7,1.5-1.2c0.7-0.5,1.5-1.1,2.4-1.7c0.5-0.3,1-0.6,1.6-1
		c0.6-0.3,1.2-0.6,1.8-1c1.3-0.6,2.7-1.3,4.2-1.9c1.5-0.6,3.2-1.2,4.9-1.6c1.7-0.5,3.5-0.9,5.4-1.2c1.9-0.3,3.7-0.6,5.6-0.7
		c1.9-0.1,3.8-0.2,5.7-0.3c1.9-0.1,3.7,0,5.5,0.1c3.6,0.2,6.9,0.6,9.6,1.1c2.8,0.5,5.1,1.1,6.7,1.5
		C255.8,128,256.7,128.3,256.7,128.3z"/>
</g>
<ellipse class="st2" cx="285.2" cy="134.1" rx="2.2" ry="4.3"/>
</svg>
