<?xml version="1.0" encoding="utf-8"?>
<!-- Generator: Adobe Illustrator 18.1.1, SVG Export Plug-In . SVG Version: 6.00 Build 0)  -->
<svg version="1.1" id="Layer_1" xmlns="http://www.w3.org/2000/svg" xmlns:xlink="http://www.w3.org/1999/xlink" x="0px" y="0px"
	 viewBox="0 0 36 36" style="enable-background:new 0 0 36 36;" xml:space="preserve">
<style type="text/css">
	.st0{fill:#FC8754;}
	.st1{fill:#FFFFFF;}
</style>
<path class="st0" d="M33,11.4c0,0.6,0,1.3,0,1.9c0,1.1-0.8,1.9-1.9,1.9c-1.2,0-2.4,0-3.6,0c-1,0-1.9-0.8-1.9-1.8
	c0-2.4-1.4-4-3.5-4.9c-1.1-0.5-2.2-0.7-3.4-0.7c-1.5,0-2.9,0-4.3,0.5c-1.6,0.6-2.8,1.6-3.5,3.1c-0.3,0.6-0.4,1.2-0.4,1.8
	c0,1.3-0.8,2.1-2.1,2.1c-1.1,0-2.3,0-3.4,0c-1,0-1.7-0.5-2-1.5c0,0,0-0.1,0-0.1c0-0.9,0-1.8,0-2.8c0.1-0.2,0.1-0.5,0.2-0.8
	c0.2-0.6,0.5-1,0.9-1.4C5.8,7.1,7.8,5.7,10,5c1.6-0.5,3.2-0.8,4.9-0.9c1.7-0.1,3.5-0.2,5.2-0.1c2.6,0.2,5.2,0.6,7.6,1.8
	c1.6,0.8,2.9,1.9,4.2,3.1C32.7,9.5,33,10.4,33,11.4z"/>
<path class="st0" d="M31.1,26.4c0,1.3,0,2.6,0,3.9c0,0.8-0.6,1.5-1.4,1.8c-0.1,0-0.1,0-0.2,0.1c-7.7,0-15.4,0-23.1,0
	c0,0-0.1,0-0.1,0c-1-0.3-1.5-0.9-1.5-2c0-0.7,0-1.4,0-2c0-1.3,0-2.6,0.5-3.8c1.2-3,2.9-5.6,4.6-8.3c0.3-0.5,0.8-0.7,1.4-0.7
	c0.3,0,0.6,0,0.9,0c0-0.8,0-1.5,0-2.2c0-0.5,0.2-0.9,0.7-1.2c0.7-0.4,1.5-0.5,2.2-0.1c0.6,0.3,0.9,0.7,0.9,1.4c0,0.5,0,1,0,1.5
	c0,0.2,0,0.4,0,0.6c1.3,0,2.5,0,3.8,0c0-0.8,0-1.5,0-2.2c0-0.5,0.2-0.9,0.7-1.2c0.6-0.4,1.3-0.4,2-0.2c0.8,0.2,1.1,0.7,1.1,1.6
	c0,0.4,0,0.7,0,1.1c0,0.3,0,0.7,0,1c0.3,0,0.6,0,0.9,0c0.6,0,1.2,0.3,1.6,0.8c1.6,2.2,3,4.5,4.1,7.1C30.7,24.1,31.1,25.2,31.1,26.4z
	 M18.1,30.2c3,0,5.5-2.6,5.5-5.6c0-3.2-2.5-5.7-5.8-5.6c-3,0-5.5,2.6-5.5,5.7C12.4,27.7,14.9,30.2,18.1,30.2z"/>
<path class="st1" d="M18,18.7c3.3,0,5.9,2.6,5.9,5.9c0,3.2-2.7,5.9-5.9,5.8c-3.2,0-5.8-2.7-5.8-6C12.1,21.3,14.8,18.7,18,18.7z"/>
</svg>
