<?xml version="1.0" encoding="utf-8"?>
<!-- Generator: Adobe Illustrator 18.1.1, SVG Export Plug-In . SVG Version: 6.00 Build 0)  -->
<svg version="1.1" id="Layer_1" xmlns="http://www.w3.org/2000/svg" xmlns:xlink="http://www.w3.org/1999/xlink" x="0px" y="0px"
	 viewBox="0 0 234 217" style="enable-background:new 0 0 234 217;" xml:space="preserve">
<style type="text/css">
	.st0{fill:#21C6F6;}
	.st1{fill:#21150A;}
</style>
<g>
	<circle class="st0" cx="117" cy="108.5" r="93.7"/>
	<circle class="st1" cx="117" cy="108.5" r="82"/>
	<g>
		<path class="st0" d="M62.7,144.1V69.7h24.1c9.1,0,15.1,0.4,17.9,1.1c4.3,1.1,7.8,3.5,10.7,7.3c2.9,3.7,4.3,8.6,4.3,14.5
			c0,4.6-0.8,8.4-2.5,11.5c-1.7,3.1-3.8,5.6-6.3,7.3c-2.6,1.8-5.1,3-7.8,3.5c-3.6,0.7-8.8,1.1-15.6,1.1h-9.8v28.1H62.7z M77.8,82.3
			v21.1H86c5.9,0,9.9-0.4,11.9-1.2c2-0.8,3.6-2,4.7-3.7c1.1-1.7,1.7-3.6,1.7-5.8c0-2.7-0.8-4.9-2.4-6.7c-1.6-1.8-3.6-2.9-6-3.3
			c-1.8-0.3-5.4-0.5-10.8-0.5H77.8z"/>
		<path class="st0" d="M122.9,128.7l14.3-2.2c0.6,2.8,1.8,4.9,3.7,6.3c1.9,1.4,4.5,2.2,7.8,2.2c3.7,0,6.5-0.7,8.3-2
			c1.3-0.9,1.9-2.2,1.9-3.8c0-1.1-0.3-2-1-2.7c-0.7-0.7-2.3-1.3-4.8-1.9c-11.5-2.5-18.8-4.9-21.9-7c-4.3-2.9-6.4-7-6.4-12.1
			c0-4.7,1.8-8.6,5.5-11.8c3.7-3.2,9.4-4.8,17.1-4.8c7.4,0,12.9,1.2,16.4,3.6c3.6,2.4,6.1,6,7.4,10.7l-13.4,2.5
			c-0.6-2.1-1.7-3.7-3.3-4.8c-1.6-1.1-3.9-1.7-6.9-1.7c-3.8,0-6.4,0.5-8.1,1.6c-1.1,0.7-1.6,1.7-1.6,2.9c0,1,0.5,1.9,1.4,2.6
			c1.3,0.9,5.7,2.3,13.3,4c7.6,1.7,12.9,3.8,15.9,6.3c3,2.5,4.5,6.1,4.5,10.6c0,4.9-2.1,9.2-6.2,12.7c-4.1,3.6-10.2,5.3-18.3,5.3
			c-7.3,0-13.1-1.5-17.4-4.5C127,137.9,124.2,133.8,122.9,128.7z"/>
	</g>
</g>
</svg>
