<?xml version="1.0" encoding="utf-8"?>
<!-- Generator: Adobe Illustrator 18.1.1, SVG Export Plug-In . SVG Version: 6.00 Build 0)  -->
<svg version="1.1" id="Layer_1" xmlns="http://www.w3.org/2000/svg" xmlns:xlink="http://www.w3.org/1999/xlink" x="0px" y="0px"
	 viewBox="0 0 154.2 236.5" style="enable-background:new 0 0 154.2 236.5;" xml:space="preserve">
<style type="text/css">
	.st0{fill:#F4F4F4;}
</style>
<path class="st0" d="M70.8,218.4c0,0-33.2-44.3,0-90.2S42.6,96.5,50.4,63.3s30.4-39.7,30.4-39.7s-15.4,38.2,0,49.2s35.3,35.6,0,77.6
	S70.8,218.4,70.8,218.4z"/>
<path class="st0" d="M109.3,215.3c0,0,9.9-26.3,0-53.6s8.4-18.8,6.1-38.6c-2.3-19.8-9-23.6-9-23.6s4.6,22.7,0,29.3
	c-4.6,6.6-10.5,21.2,0,46.1S109.3,215.3,109.3,215.3z"/>
<g>
</g>
<g>
</g>
<g>
</g>
<g>
</g>
<g>
</g>
<g>
</g>
</svg>
