<?xml version="1.0" encoding="utf-8"?>
<!-- Generator: Adobe Illustrator 18.1.1, SVG Export Plug-In . SVG Version: 6.00 Build 0)  -->
<svg version="1.1" id="Layer_1" xmlns="http://www.w3.org/2000/svg" xmlns:xlink="http://www.w3.org/1999/xlink" x="0px" y="0px"
	 viewBox="0 0 46.9 37.8" style="enable-background:new 0 0 46.9 37.8;" xml:space="preserve">
<style type="text/css">
	.st0{fill:#F79451;}
</style>
<path class="st0" d="M42.3,9.2H4.6C2.1,9.2,0,7.1,0,4.6v0C0,2.1,2.1,0,4.6,0h37.8c2.5,0,4.6,2.1,4.6,4.6v0
	C46.9,7.1,44.9,9.2,42.3,9.2z"/>
<path class="st0" d="M42.3,23.5H4.6c-2.5,0-4.6-2.1-4.6-4.6v0c0-2.5,2.1-4.6,4.6-4.6h37.8c2.5,0,4.6,2.1,4.6,4.6v0
	C46.9,21.4,44.9,23.5,42.3,23.5z"/>
<path class="st0" d="M42.3,37.8H4.6c-2.5,0-4.6-2.1-4.6-4.6v0c0-2.5,2.1-4.6,4.6-4.6h37.8c2.5,0,4.6,2.1,4.6,4.6v0
	C46.9,35.7,44.9,37.8,42.3,37.8z"/>
</svg>
